<mxfile host="app.diagrams.net" agent="Mozilla/5.0 (Macintosh; Intel Mac OS X 10_15_7) AppleWebKit/537.36 (KHTML, like Gecko) Chrome/138.0.0.0 Safari/537.36" version="27.2.0" pages="6">
  <diagram name="Diagrama en bloques" id="viOvZfvEC3Nm27G9Bghc">
    <mxGraphModel dx="1006" dy="557" grid="1" gridSize="10" guides="1" tooltips="1" connect="1" arrows="1" fold="1" page="1" pageScale="1" pageWidth="827" pageHeight="1169" math="0" shadow="0">
      <root>
        <mxCell id="0" />
        <mxCell id="1" parent="0" />
        <mxCell id="_OaTzdXBvvJeqG0Sq9bI-23" value="" style="edgeStyle=orthogonalEdgeStyle;rounded=0;orthogonalLoop=1;jettySize=auto;html=1;strokeWidth=2;" edge="1" parent="1" source="_OaTzdXBvvJeqG0Sq9bI-1" target="_OaTzdXBvvJeqG0Sq9bI-11">
          <mxGeometry relative="1" as="geometry" />
        </mxCell>
        <mxCell id="_OaTzdXBvvJeqG0Sq9bI-1" value="Base de datos" style="shape=datastore;whiteSpace=wrap;html=1;" vertex="1" parent="1">
          <mxGeometry x="460" y="185" width="70" height="80" as="geometry" />
        </mxCell>
        <mxCell id="_OaTzdXBvvJeqG0Sq9bI-3" value="Repositorio de videos" style="swimlane;whiteSpace=wrap;html=1;" vertex="1" parent="1">
          <mxGeometry x="50" y="40" width="200" height="110" as="geometry" />
        </mxCell>
        <mxCell id="_OaTzdXBvvJeqG0Sq9bI-4" value="" style="sketch=0;aspect=fixed;pointerEvents=1;shadow=0;dashed=0;html=1;strokeColor=none;labelPosition=center;verticalLabelPosition=bottom;verticalAlign=top;align=center;fillColor=#00188D;shape=mxgraph.mscae.general.video" vertex="1" parent="_OaTzdXBvvJeqG0Sq9bI-3">
          <mxGeometry x="10" y="40" width="49" height="50" as="geometry" />
        </mxCell>
        <mxCell id="_OaTzdXBvvJeqG0Sq9bI-5" value="" style="sketch=0;aspect=fixed;pointerEvents=1;shadow=0;dashed=0;html=1;strokeColor=none;labelPosition=center;verticalLabelPosition=bottom;verticalAlign=top;align=center;fillColor=#00188D;shape=mxgraph.mscae.general.video" vertex="1" parent="_OaTzdXBvvJeqG0Sq9bI-3">
          <mxGeometry x="75" y="40" width="49" height="50" as="geometry" />
        </mxCell>
        <mxCell id="_OaTzdXBvvJeqG0Sq9bI-6" value="" style="sketch=0;aspect=fixed;pointerEvents=1;shadow=0;dashed=0;html=1;strokeColor=none;labelPosition=center;verticalLabelPosition=bottom;verticalAlign=top;align=center;fillColor=#00188D;shape=mxgraph.mscae.general.video" vertex="1" parent="_OaTzdXBvvJeqG0Sq9bI-3">
          <mxGeometry x="140" y="40" width="49" height="50" as="geometry" />
        </mxCell>
        <mxCell id="_OaTzdXBvvJeqG0Sq9bI-7" value="Aplicación de prototipo" style="swimlane;whiteSpace=wrap;html=1;" vertex="1" parent="1">
          <mxGeometry x="303.65999999999997" y="20" width="220" height="130" as="geometry" />
        </mxCell>
        <mxCell id="_OaTzdXBvvJeqG0Sq9bI-8" value="" style="sketch=0;aspect=fixed;pointerEvents=1;shadow=0;dashed=0;html=1;strokeColor=none;labelPosition=center;verticalLabelPosition=bottom;verticalAlign=top;align=center;fillColor=#00188D;shape=mxgraph.mscae.general.video" vertex="1" parent="_OaTzdXBvvJeqG0Sq9bI-7">
          <mxGeometry x="25.5" y="60" width="49" height="50" as="geometry" />
        </mxCell>
        <mxCell id="_OaTzdXBvvJeqG0Sq9bI-11" value="Estado del quirófano" style="rounded=0;whiteSpace=wrap;html=1;" vertex="1" parent="_OaTzdXBvvJeqG0Sq9bI-7">
          <mxGeometry x="124" y="40" width="80" height="70" as="geometry" />
        </mxCell>
        <mxCell id="_OaTzdXBvvJeqG0Sq9bI-12" value="Video a procesar" style="text;html=1;align=center;verticalAlign=middle;whiteSpace=wrap;rounded=0;" vertex="1" parent="_OaTzdXBvvJeqG0Sq9bI-7">
          <mxGeometry x="20" y="30" width="60" height="30" as="geometry" />
        </mxCell>
        <mxCell id="_OaTzdXBvvJeqG0Sq9bI-22" value="" style="edgeStyle=orthogonalEdgeStyle;rounded=0;orthogonalLoop=1;jettySize=auto;html=1;strokeWidth=2;" edge="1" parent="1" source="_OaTzdXBvvJeqG0Sq9bI-13" target="_OaTzdXBvvJeqG0Sq9bI-1">
          <mxGeometry relative="1" as="geometry" />
        </mxCell>
        <mxCell id="_OaTzdXBvvJeqG0Sq9bI-13" value="" style="image;sketch=0;aspect=fixed;html=1;points=[];align=center;fontSize=12;image=img/lib/mscae/Cognitive_Services.svg;" vertex="1" parent="1">
          <mxGeometry x="312.34" y="200" width="83.33" height="50" as="geometry" />
        </mxCell>
        <mxCell id="_OaTzdXBvvJeqG0Sq9bI-14" value="Aplicación y modelo de visión por computadora" style="text;html=1;align=center;verticalAlign=middle;whiteSpace=wrap;rounded=0;" vertex="1" parent="1">
          <mxGeometry x="294" y="260" width="120" height="30" as="geometry" />
        </mxCell>
        <mxCell id="_OaTzdXBvvJeqG0Sq9bI-18" style="edgeStyle=orthogonalEdgeStyle;rounded=0;orthogonalLoop=1;jettySize=auto;html=1;exitX=1;exitY=0.5;exitDx=0;exitDy=0;exitPerimeter=0;entryX=0;entryY=0.5;entryDx=0;entryDy=0;entryPerimeter=0;strokeWidth=2;" edge="1" parent="1" source="_OaTzdXBvvJeqG0Sq9bI-6" target="_OaTzdXBvvJeqG0Sq9bI-8">
          <mxGeometry relative="1" as="geometry" />
        </mxCell>
        <mxCell id="_OaTzdXBvvJeqG0Sq9bI-21" style="edgeStyle=orthogonalEdgeStyle;rounded=0;orthogonalLoop=1;jettySize=auto;html=1;exitX=0.5;exitY=1;exitDx=0;exitDy=0;exitPerimeter=0;entryX=0.5;entryY=0;entryDx=0;entryDy=0;entryPerimeter=0;strokeWidth=2;" edge="1" parent="1" source="_OaTzdXBvvJeqG0Sq9bI-8" target="_OaTzdXBvvJeqG0Sq9bI-13">
          <mxGeometry relative="1" as="geometry" />
        </mxCell>
      </root>
    </mxGraphModel>
  </diagram>
  <diagram id="JKbsQURaDr2a_oLHjApa" name="Ciclo de vida del quirófano">
    <mxGraphModel dx="1006" dy="557" grid="1" gridSize="10" guides="1" tooltips="1" connect="1" arrows="1" fold="1" page="1" pageScale="1" pageWidth="827" pageHeight="1169" math="0" shadow="0">
      <root>
        <mxCell id="0" />
        <mxCell id="1" parent="0" />
        <mxCell id="AU9YK0k_ocg62SQWi8QE-1" value="Quirófano listo" style="rounded=1;whiteSpace=wrap;html=1;strokeWidth=2;" vertex="1" parent="1">
          <mxGeometry x="120" y="170" width="110" height="60" as="geometry" />
        </mxCell>
        <mxCell id="AU9YK0k_ocg62SQWi8QE-2" value="Entrada del&lt;div&gt;&amp;nbsp;paciente&lt;/div&gt;" style="rounded=1;whiteSpace=wrap;html=1;strokeWidth=2;" vertex="1" parent="1">
          <mxGeometry x="304" y="80" width="110" height="60" as="geometry" />
        </mxCell>
        <mxCell id="AU9YK0k_ocg62SQWi8QE-3" value="Cirugía en curso" style="rounded=1;whiteSpace=wrap;html=1;strokeWidth=2;" vertex="1" parent="1">
          <mxGeometry x="500" y="170" width="110" height="60" as="geometry" />
        </mxCell>
        <mxCell id="AU9YK0k_ocg62SQWi8QE-12" value="" style="edgeStyle=orthogonalEdgeStyle;rounded=0;orthogonalLoop=1;jettySize=auto;html=1;strokeWidth=2;" edge="1" parent="1" source="AU9YK0k_ocg62SQWi8QE-4" target="AU9YK0k_ocg62SQWi8QE-5">
          <mxGeometry relative="1" as="geometry" />
        </mxCell>
        <mxCell id="AU9YK0k_ocg62SQWi8QE-4" value="Salida del&lt;div&gt;&amp;nbsp;paciente&lt;/div&gt;" style="rounded=1;whiteSpace=wrap;html=1;strokeWidth=2;" vertex="1" parent="1">
          <mxGeometry x="390" y="290" width="110" height="60" as="geometry" />
        </mxCell>
        <mxCell id="AU9YK0k_ocg62SQWi8QE-5" value="Limpieza del quirófano" style="rounded=1;whiteSpace=wrap;html=1;strokeWidth=2;" vertex="1" parent="1">
          <mxGeometry x="230" y="290" width="110" height="60" as="geometry" />
        </mxCell>
        <mxCell id="AU9YK0k_ocg62SQWi8QE-8" value="" style="curved=1;endArrow=classic;html=1;rounded=0;entryX=0.5;entryY=0;entryDx=0;entryDy=0;strokeWidth=2;exitX=1;exitY=0.5;exitDx=0;exitDy=0;" edge="1" parent="1" source="AU9YK0k_ocg62SQWi8QE-2" target="AU9YK0k_ocg62SQWi8QE-3">
          <mxGeometry width="50" height="50" relative="1" as="geometry">
            <mxPoint x="420" y="104" as="sourcePoint" />
            <mxPoint x="544" y="80" as="targetPoint" />
            <Array as="points">
              <mxPoint x="560" y="100" />
            </Array>
          </mxGeometry>
        </mxCell>
        <mxCell id="AU9YK0k_ocg62SQWi8QE-9" value="" style="curved=1;endArrow=classic;html=1;rounded=0;strokeWidth=2;exitX=0.5;exitY=0;exitDx=0;exitDy=0;" edge="1" parent="1" source="AU9YK0k_ocg62SQWi8QE-1">
          <mxGeometry width="50" height="50" relative="1" as="geometry">
            <mxPoint x="211" y="54" as="sourcePoint" />
            <mxPoint x="300" y="110" as="targetPoint" />
            <Array as="points">
              <mxPoint x="170" y="100" />
            </Array>
          </mxGeometry>
        </mxCell>
        <mxCell id="AU9YK0k_ocg62SQWi8QE-10" value="" style="curved=1;endArrow=classic;html=1;rounded=0;entryX=0.5;entryY=0;entryDx=0;entryDy=0;strokeWidth=2;exitX=0.582;exitY=1.017;exitDx=0;exitDy=0;exitPerimeter=0;" edge="1" parent="1" source="AU9YK0k_ocg62SQWi8QE-3">
          <mxGeometry width="50" height="50" relative="1" as="geometry">
            <mxPoint x="595" y="250" as="sourcePoint" />
            <mxPoint x="500" y="320" as="targetPoint" />
            <Array as="points">
              <mxPoint x="590" y="330" />
            </Array>
          </mxGeometry>
        </mxCell>
        <mxCell id="AU9YK0k_ocg62SQWi8QE-11" value="" style="curved=1;endArrow=classic;html=1;rounded=0;entryX=0.5;entryY=1;entryDx=0;entryDy=0;strokeWidth=2;exitX=0;exitY=0.5;exitDx=0;exitDy=0;" edge="1" parent="1" source="AU9YK0k_ocg62SQWi8QE-5" target="AU9YK0k_ocg62SQWi8QE-1">
          <mxGeometry width="50" height="50" relative="1" as="geometry">
            <mxPoint x="130" y="330" as="sourcePoint" />
            <mxPoint x="225" y="260" as="targetPoint" />
            <Array as="points">
              <mxPoint x="150" y="340" />
            </Array>
          </mxGeometry>
        </mxCell>
      </root>
    </mxGraphModel>
  </diagram>
  <diagram id="R8BQjQRTlVG_yz9U3reB" name="ActivityOnNode">
    <mxGraphModel dx="2705" dy="957" grid="1" gridSize="10" guides="1" tooltips="1" connect="1" arrows="1" fold="1" page="1" pageScale="1" pageWidth="827" pageHeight="1169" math="0" shadow="0">
      <root>
        <mxCell id="0" />
        <mxCell id="1" parent="0" />
        <mxCell id="NcKbxDm8HYAqXvMeSM9m-1" value="6. Presentación del trabajo (30h)" style="whiteSpace=wrap;strokeWidth=2;" vertex="1" parent="1">
          <mxGeometry x="-257" y="1830" width="330" height="128" as="geometry" />
        </mxCell>
        <mxCell id="NcKbxDm8HYAqXvMeSM9m-2" value="5. Elaboración de documentos (144h)" style="whiteSpace=wrap;strokeWidth=2;" vertex="1" parent="1">
          <mxGeometry x="-578" y="1347" width="1064" height="433" as="geometry" />
        </mxCell>
        <mxCell id="NcKbxDm8HYAqXvMeSM9m-3" value="4. Inferencia e integración (128h)" style="whiteSpace=wrap;strokeWidth=2;" vertex="1" parent="1">
          <mxGeometry x="506" y="913" width="340" height="562" as="geometry" />
        </mxCell>
        <mxCell id="NcKbxDm8HYAqXvMeSM9m-4" value="3. Desarrollo del modelo (128h)" style="whiteSpace=wrap;strokeWidth=2;" vertex="1" parent="1">
          <mxGeometry x="-390" y="607" width="617" height="562" as="geometry" />
        </mxCell>
        <mxCell id="NcKbxDm8HYAqXvMeSM9m-5" value="2. Preparación de datos y etiquetado (190h)" style="whiteSpace=wrap;strokeWidth=2;" vertex="1" parent="1">
          <mxGeometry x="290" y="301" width="659" height="434" as="geometry" />
        </mxCell>
        <mxCell id="NcKbxDm8HYAqXvMeSM9m-6" value="1. Configuración inicial y planificación (80h)" style="whiteSpace=wrap;strokeWidth=2;" vertex="1" parent="1">
          <mxGeometry x="-740" y="20" width="1010" height="409" as="geometry" />
        </mxCell>
        <mxCell id="NcKbxDm8HYAqXvMeSM9m-7" value="1.1 Definición del problema (16h)" style="whiteSpace=wrap;strokeWidth=2;" vertex="1" parent="1">
          <mxGeometry x="-139" y="45" width="260" height="78" as="geometry" />
        </mxCell>
        <mxCell id="NcKbxDm8HYAqXvMeSM9m-8" value="1.2 Creación de repo y entornos (20h)" style="whiteSpace=wrap;strokeWidth=2;" vertex="1" parent="1">
          <mxGeometry x="-355" y="173" width="260" height="78" as="geometry" />
        </mxCell>
        <mxCell id="NcKbxDm8HYAqXvMeSM9m-9" value="1.3 Configuración DVC/Git LFS (14h)" style="whiteSpace=wrap;strokeWidth=2;" vertex="1" parent="1">
          <mxGeometry x="-705" y="326" width="260" height="78" as="geometry" />
        </mxCell>
        <mxCell id="NcKbxDm8HYAqXvMeSM9m-10" value="1.4 Selección herramienta etiquetado (30h)" style="whiteSpace=wrap;strokeWidth=2;" vertex="1" parent="1">
          <mxGeometry x="-45" y="173" width="260" height="78" as="geometry" />
        </mxCell>
        <mxCell id="NcKbxDm8HYAqXvMeSM9m-11" value="2.1 Análisis videos y dataset (40h)" style="whiteSpace=wrap;strokeWidth=2;" vertex="1" parent="1">
          <mxGeometry x="551" y="326" width="260" height="78" as="geometry" />
        </mxCell>
        <mxCell id="NcKbxDm8HYAqXvMeSM9m-12" value="2.2 Definición esquema anotación (30h)" style="whiteSpace=wrap;strokeWidth=2;" vertex="1" parent="1">
          <mxGeometry x="654" y="479" width="260" height="78" as="geometry" />
        </mxCell>
        <mxCell id="NcKbxDm8HYAqXvMeSM9m-13" value="2.3 Extracción frames (40h)" style="whiteSpace=wrap;strokeWidth=2;" vertex="1" parent="1">
          <mxGeometry x="346" y="491" width="259" height="54" as="geometry" />
        </mxCell>
        <mxCell id="NcKbxDm8HYAqXvMeSM9m-14" value="2.4 Etiquetado quirófano 1 (40h)" style="whiteSpace=wrap;strokeWidth=2;" vertex="1" parent="1">
          <mxGeometry x="654" y="632" width="260" height="78" as="geometry" />
        </mxCell>
        <mxCell id="NcKbxDm8HYAqXvMeSM9m-15" value="2.5 Etiquetado quirófano 2 (40h)" style="whiteSpace=wrap;strokeWidth=2;" vertex="1" parent="1">
          <mxGeometry x="325" y="632" width="260" height="78" as="geometry" />
        </mxCell>
        <mxCell id="NcKbxDm8HYAqXvMeSM9m-16" value="3.1 Pruebas y selección modelo base (40h)" style="whiteSpace=wrap;strokeWidth=2;" vertex="1" parent="1">
          <mxGeometry x="-223" y="785" width="260" height="78" as="geometry" />
        </mxCell>
        <mxCell id="NcKbxDm8HYAqXvMeSM9m-17" value="3.2 Configuración MLflow (8h)" style="whiteSpace=wrap;strokeWidth=2;" vertex="1" parent="1">
          <mxGeometry x="-355" y="632" width="260" height="78" as="geometry" />
        </mxCell>
        <mxCell id="NcKbxDm8HYAqXvMeSM9m-18" value="3.3 Evaluación y ajuste umbrales (40h)" style="whiteSpace=wrap;strokeWidth=2;" vertex="1" parent="1">
          <mxGeometry x="-68" y="938" width="260" height="78" as="geometry" />
        </mxCell>
        <mxCell id="NcKbxDm8HYAqXvMeSM9m-19" value="3.4 Evaluación final y métricas (40h)" style="whiteSpace=wrap;strokeWidth=2;" vertex="1" parent="1">
          <mxGeometry x="-68" y="1066" width="260" height="78" as="geometry" />
        </mxCell>
        <mxCell id="NcKbxDm8HYAqXvMeSM9m-20" value="4.1 Desarrollo app prototipo (40h)" style="whiteSpace=wrap;strokeWidth=2;" vertex="1" parent="1">
          <mxGeometry x="541" y="1066" width="260" height="78" as="geometry" />
        </mxCell>
        <mxCell id="NcKbxDm8HYAqXvMeSM9m-21" value="4.2 Diseño DB (8h)" style="whiteSpace=wrap;strokeWidth=2;" vertex="1" parent="1">
          <mxGeometry x="575" y="950" width="192" height="54" as="geometry" />
        </mxCell>
        <mxCell id="NcKbxDm8HYAqXvMeSM9m-22" value="4.3 Empaquetamiento modelo/APIs (40h)" style="whiteSpace=wrap;strokeWidth=2;" vertex="1" parent="1">
          <mxGeometry x="551" y="1219" width="260" height="78" as="geometry" />
        </mxCell>
        <mxCell id="NcKbxDm8HYAqXvMeSM9m-23" value="4.4 Pruebas end-to-end (40h)" style="whiteSpace=wrap;strokeWidth=2;" vertex="1" parent="1">
          <mxGeometry x="551" y="1372" width="260" height="78" as="geometry" />
        </mxCell>
        <mxCell id="NcKbxDm8HYAqXvMeSM9m-24" value="5.1 Informe de avance (5h)" style="whiteSpace=wrap;strokeWidth=2;" vertex="1" parent="1">
          <mxGeometry x="-537" y="1384" width="254" height="54" as="geometry" />
        </mxCell>
        <mxCell id="NcKbxDm8HYAqXvMeSM9m-25" value="5.2 Video de demostración (15h)" style="whiteSpace=wrap;strokeWidth=2;" vertex="1" parent="1">
          <mxGeometry x="-543" y="1525" width="260" height="78" as="geometry" />
        </mxCell>
        <mxCell id="NcKbxDm8HYAqXvMeSM9m-26" value="5.3 Confección memoria TTF A (20h)" style="whiteSpace=wrap;strokeWidth=2;" vertex="1" parent="1">
          <mxGeometry x="-233" y="1372" width="260" height="78" as="geometry" />
        </mxCell>
        <mxCell id="NcKbxDm8HYAqXvMeSM9m-27" value="5.4 Confección memoria TTF B (40h)" style="whiteSpace=wrap;strokeWidth=2;" vertex="1" parent="1">
          <mxGeometry x="-212" y="1525" width="260" height="78" as="geometry" />
        </mxCell>
        <mxCell id="NcKbxDm8HYAqXvMeSM9m-28" value="5.5 Correcciones y ajustes memoria (30h)" style="whiteSpace=wrap;strokeWidth=2;" vertex="1" parent="1">
          <mxGeometry x="-222" y="1665" width="260" height="78" as="geometry" />
        </mxCell>
        <mxCell id="NcKbxDm8HYAqXvMeSM9m-29" value="5.6 Documentación código/herramientas (20h)" style="whiteSpace=wrap;strokeWidth=2;" vertex="1" parent="1">
          <mxGeometry x="98" y="1525" width="260" height="78" as="geometry" />
        </mxCell>
        <mxCell id="NcKbxDm8HYAqXvMeSM9m-30" value="5.7 Documento recomendaciones cliente (14h)" style="whiteSpace=wrap;strokeWidth=2;" vertex="1" parent="1">
          <mxGeometry x="191" y="1653" width="260" height="102" as="geometry" />
        </mxCell>
        <mxCell id="NcKbxDm8HYAqXvMeSM9m-31" value="6.1 Preparación presentación final (30h)" style="whiteSpace=wrap;strokeWidth=2;" vertex="1" parent="1">
          <mxGeometry x="-222" y="1855" width="260" height="78" as="geometry" />
        </mxCell>
        <mxCell id="NcKbxDm8HYAqXvMeSM9m-32" value="" style="curved=1;startArrow=none;endArrow=block;exitX=0;exitY=0.99;entryX=0.5;entryY=0;rounded=0;" edge="1" parent="1" source="NcKbxDm8HYAqXvMeSM9m-7" target="NcKbxDm8HYAqXvMeSM9m-8">
          <mxGeometry relative="1" as="geometry">
            <Array as="points">
              <mxPoint x="-225" y="148" />
            </Array>
          </mxGeometry>
        </mxCell>
        <mxCell id="NcKbxDm8HYAqXvMeSM9m-33" value="" style="curved=1;startArrow=none;endArrow=block;exitX=0.72;exitY=1;entryX=0.5;entryY=0;rounded=0;" edge="1" parent="1" source="NcKbxDm8HYAqXvMeSM9m-7" target="NcKbxDm8HYAqXvMeSM9m-10">
          <mxGeometry relative="1" as="geometry">
            <Array as="points">
              <mxPoint x="85" y="148" />
            </Array>
          </mxGeometry>
        </mxCell>
        <mxCell id="NcKbxDm8HYAqXvMeSM9m-34" value="" style="curved=1;startArrow=none;endArrow=block;exitX=0;exitY=0.8;entryX=0.5;entryY=0;rounded=0;" edge="1" parent="1" source="NcKbxDm8HYAqXvMeSM9m-8" target="NcKbxDm8HYAqXvMeSM9m-9">
          <mxGeometry relative="1" as="geometry">
            <Array as="points">
              <mxPoint x="-575" y="276" />
            </Array>
          </mxGeometry>
        </mxCell>
        <mxCell id="NcKbxDm8HYAqXvMeSM9m-35" value="" style="curved=1;startArrow=none;endArrow=block;exitX=1;exitY=0.91;entryX=0;entryY=0.25;rounded=0;" edge="1" parent="1" source="NcKbxDm8HYAqXvMeSM9m-7" target="NcKbxDm8HYAqXvMeSM9m-11">
          <mxGeometry relative="1" as="geometry">
            <Array as="points">
              <mxPoint x="250" y="148" />
              <mxPoint x="250" y="301" />
            </Array>
          </mxGeometry>
        </mxCell>
        <mxCell id="NcKbxDm8HYAqXvMeSM9m-36" value="" style="curved=1;startArrow=none;endArrow=block;exitX=0.5;exitY=1;entryX=0;entryY=0.32;rounded=0;" edge="1" parent="1" source="NcKbxDm8HYAqXvMeSM9m-10" target="NcKbxDm8HYAqXvMeSM9m-11">
          <mxGeometry relative="1" as="geometry">
            <Array as="points">
              <mxPoint x="85" y="301" />
            </Array>
          </mxGeometry>
        </mxCell>
        <mxCell id="NcKbxDm8HYAqXvMeSM9m-37" value="" style="curved=1;startArrow=none;endArrow=block;exitX=0.74;exitY=1;entryX=0.5;entryY=0;rounded=0;" edge="1" parent="1" source="NcKbxDm8HYAqXvMeSM9m-11" target="NcKbxDm8HYAqXvMeSM9m-12">
          <mxGeometry relative="1" as="geometry">
            <Array as="points">
              <mxPoint x="784" y="429" />
            </Array>
          </mxGeometry>
        </mxCell>
        <mxCell id="NcKbxDm8HYAqXvMeSM9m-38" value="" style="curved=1;startArrow=none;endArrow=block;exitX=0.02;exitY=1;entryX=0.5;entryY=0;rounded=0;" edge="1" parent="1" source="NcKbxDm8HYAqXvMeSM9m-11" target="NcKbxDm8HYAqXvMeSM9m-13">
          <mxGeometry relative="1" as="geometry">
            <Array as="points">
              <mxPoint x="475" y="429" />
            </Array>
          </mxGeometry>
        </mxCell>
        <mxCell id="NcKbxDm8HYAqXvMeSM9m-39" value="" style="curved=1;startArrow=none;endArrow=block;exitX=0.67;exitY=1;entryX=0.67;entryY=0;rounded=0;" edge="1" parent="1" source="NcKbxDm8HYAqXvMeSM9m-12" target="NcKbxDm8HYAqXvMeSM9m-14">
          <mxGeometry relative="1" as="geometry">
            <Array as="points">
              <mxPoint x="857" y="582" />
              <mxPoint x="857" y="607" />
            </Array>
          </mxGeometry>
        </mxCell>
        <mxCell id="NcKbxDm8HYAqXvMeSM9m-40" value="" style="curved=1;startArrow=none;endArrow=block;exitX=0.75;exitY=1;entryX=0.14;entryY=0;rounded=0;" edge="1" parent="1" source="NcKbxDm8HYAqXvMeSM9m-13" target="NcKbxDm8HYAqXvMeSM9m-14">
          <mxGeometry relative="1" as="geometry">
            <Array as="points">
              <mxPoint x="630" y="582" />
              <mxPoint x="630" y="607" />
            </Array>
          </mxGeometry>
        </mxCell>
        <mxCell id="NcKbxDm8HYAqXvMeSM9m-41" value="" style="curved=1;startArrow=none;endArrow=block;exitX=0.09;exitY=1;entryX=0.86;entryY=0;rounded=0;" edge="1" parent="1" source="NcKbxDm8HYAqXvMeSM9m-12" target="NcKbxDm8HYAqXvMeSM9m-15">
          <mxGeometry relative="1" as="geometry">
            <Array as="points">
              <mxPoint x="610" y="582" />
              <mxPoint x="610" y="607" />
            </Array>
          </mxGeometry>
        </mxCell>
        <mxCell id="NcKbxDm8HYAqXvMeSM9m-42" value="" style="curved=1;startArrow=none;endArrow=block;exitX=0.35;exitY=1;entryX=0.33;entryY=0;rounded=0;" edge="1" parent="1" source="NcKbxDm8HYAqXvMeSM9m-13" target="NcKbxDm8HYAqXvMeSM9m-15">
          <mxGeometry relative="1" as="geometry">
            <Array as="points">
              <mxPoint x="383" y="582" />
              <mxPoint x="383" y="607" />
            </Array>
          </mxGeometry>
        </mxCell>
        <mxCell id="NcKbxDm8HYAqXvMeSM9m-43" value="" style="curved=1;startArrow=none;endArrow=block;exitX=0.5;exitY=1;entryX=0.5;entryY=0;rounded=0;" edge="1" parent="1" source="NcKbxDm8HYAqXvMeSM9m-8" target="NcKbxDm8HYAqXvMeSM9m-17">
          <mxGeometry relative="1" as="geometry">
            <Array as="points" />
          </mxGeometry>
        </mxCell>
        <mxCell id="NcKbxDm8HYAqXvMeSM9m-44" value="" style="curved=1;startArrow=none;endArrow=block;exitX=0.5;exitY=1;entryX=1;entryY=0.03;rounded=0;" edge="1" parent="1" source="NcKbxDm8HYAqXvMeSM9m-14" target="NcKbxDm8HYAqXvMeSM9m-16">
          <mxGeometry relative="1" as="geometry">
            <Array as="points">
              <mxPoint x="784" y="735" />
              <mxPoint x="135" y="760" />
            </Array>
          </mxGeometry>
        </mxCell>
        <mxCell id="NcKbxDm8HYAqXvMeSM9m-45" value="" style="curved=1;startArrow=none;endArrow=block;exitX=0.5;exitY=1;entryX=0.5;entryY=0;rounded=0;" edge="1" parent="1" source="NcKbxDm8HYAqXvMeSM9m-15" target="NcKbxDm8HYAqXvMeSM9m-16">
          <mxGeometry relative="1" as="geometry">
            <Array as="points">
              <mxPoint x="455" y="735" />
              <mxPoint x="-93" y="760" />
            </Array>
          </mxGeometry>
        </mxCell>
        <mxCell id="NcKbxDm8HYAqXvMeSM9m-46" value="" style="curved=1;startArrow=none;endArrow=block;exitX=0.5;exitY=1;entryX=0.19;entryY=0;rounded=0;" edge="1" parent="1" source="NcKbxDm8HYAqXvMeSM9m-17" target="NcKbxDm8HYAqXvMeSM9m-16">
          <mxGeometry relative="1" as="geometry">
            <Array as="points">
              <mxPoint x="-225" y="760" />
            </Array>
          </mxGeometry>
        </mxCell>
        <mxCell id="NcKbxDm8HYAqXvMeSM9m-47" value="" style="curved=1;startArrow=none;endArrow=block;exitX=0.86;exitY=1;entryX=0.5;entryY=0;rounded=0;" edge="1" parent="1" source="NcKbxDm8HYAqXvMeSM9m-16" target="NcKbxDm8HYAqXvMeSM9m-18">
          <mxGeometry relative="1" as="geometry">
            <Array as="points">
              <mxPoint x="62" y="888" />
            </Array>
          </mxGeometry>
        </mxCell>
        <mxCell id="NcKbxDm8HYAqXvMeSM9m-48" value="" style="curved=1;startArrow=none;endArrow=block;exitX=0.5;exitY=1;entryX=0.5;entryY=0;rounded=0;" edge="1" parent="1" source="NcKbxDm8HYAqXvMeSM9m-18" target="NcKbxDm8HYAqXvMeSM9m-19">
          <mxGeometry relative="1" as="geometry">
            <Array as="points" />
          </mxGeometry>
        </mxCell>
        <mxCell id="NcKbxDm8HYAqXvMeSM9m-49" value="" style="curved=1;startArrow=none;endArrow=block;exitX=0.5;exitY=1;entryX=0.5;entryY=0;rounded=0;" edge="1" parent="1" source="NcKbxDm8HYAqXvMeSM9m-21" target="NcKbxDm8HYAqXvMeSM9m-20">
          <mxGeometry relative="1" as="geometry">
            <Array as="points" />
          </mxGeometry>
        </mxCell>
        <mxCell id="NcKbxDm8HYAqXvMeSM9m-50" value="" style="curved=1;startArrow=none;endArrow=block;exitX=0.5;exitY=1;entryX=0.67;entryY=0;rounded=0;" edge="1" parent="1" source="NcKbxDm8HYAqXvMeSM9m-19" target="NcKbxDm8HYAqXvMeSM9m-22">
          <mxGeometry relative="1" as="geometry">
            <Array as="points">
              <mxPoint x="62" y="1169" />
              <mxPoint x="753" y="1194" />
            </Array>
          </mxGeometry>
        </mxCell>
        <mxCell id="NcKbxDm8HYAqXvMeSM9m-51" value="" style="curved=1;startArrow=none;endArrow=block;exitX=0.5;exitY=1;entryX=0.48;entryY=0;rounded=0;" edge="1" parent="1" source="NcKbxDm8HYAqXvMeSM9m-20" target="NcKbxDm8HYAqXvMeSM9m-22">
          <mxGeometry relative="1" as="geometry">
            <Array as="points">
              <mxPoint x="671" y="1194" />
            </Array>
          </mxGeometry>
        </mxCell>
        <mxCell id="NcKbxDm8HYAqXvMeSM9m-52" value="" style="curved=1;startArrow=none;endArrow=block;exitX=0.5;exitY=1;entryX=0.5;entryY=0;rounded=0;" edge="1" parent="1" source="NcKbxDm8HYAqXvMeSM9m-22" target="NcKbxDm8HYAqXvMeSM9m-23">
          <mxGeometry relative="1" as="geometry">
            <Array as="points" />
          </mxGeometry>
        </mxCell>
        <mxCell id="NcKbxDm8HYAqXvMeSM9m-53" value="" style="curved=1;startArrow=none;endArrow=block;exitX=0;exitY=0.77;entryX=0.5;entryY=0;rounded=0;" edge="1" parent="1" source="NcKbxDm8HYAqXvMeSM9m-7" target="NcKbxDm8HYAqXvMeSM9m-24">
          <mxGeometry relative="1" as="geometry">
            <Array as="points">
              <mxPoint x="-410" y="148" />
            </Array>
          </mxGeometry>
        </mxCell>
        <mxCell id="NcKbxDm8HYAqXvMeSM9m-54" value="" style="curved=1;startArrow=none;endArrow=block;exitX=0.48;exitY=1;entryX=0.5;entryY=0;rounded=0;" edge="1" parent="1" source="NcKbxDm8HYAqXvMeSM9m-16" target="NcKbxDm8HYAqXvMeSM9m-26">
          <mxGeometry relative="1" as="geometry">
            <Array as="points">
              <mxPoint x="-103" y="888" />
            </Array>
          </mxGeometry>
        </mxCell>
        <mxCell id="NcKbxDm8HYAqXvMeSM9m-55" value="" style="curved=1;startArrow=none;endArrow=block;exitX=0.33;exitY=1;entryX=0.5;entryY=0;rounded=0;" edge="1" parent="1" source="NcKbxDm8HYAqXvMeSM9m-23" target="NcKbxDm8HYAqXvMeSM9m-25">
          <mxGeometry relative="1" as="geometry">
            <Array as="points">
              <mxPoint x="608" y="1475" />
              <mxPoint x="-413" y="1500" />
            </Array>
          </mxGeometry>
        </mxCell>
        <mxCell id="NcKbxDm8HYAqXvMeSM9m-56" value="" style="curved=1;startArrow=none;endArrow=block;exitX=0.45;exitY=1;entryX=0.84;entryY=0;rounded=0;" edge="1" parent="1" source="NcKbxDm8HYAqXvMeSM9m-23" target="NcKbxDm8HYAqXvMeSM9m-27">
          <mxGeometry relative="1" as="geometry">
            <Array as="points">
              <mxPoint x="659" y="1475" />
              <mxPoint x="63" y="1500" />
            </Array>
          </mxGeometry>
        </mxCell>
        <mxCell id="NcKbxDm8HYAqXvMeSM9m-57" value="" style="curved=1;startArrow=none;endArrow=block;exitX=0.5;exitY=1;entryX=0.45;entryY=0;rounded=0;" edge="1" parent="1" source="NcKbxDm8HYAqXvMeSM9m-26" target="NcKbxDm8HYAqXvMeSM9m-27">
          <mxGeometry relative="1" as="geometry">
            <Array as="points">
              <mxPoint x="-103" y="1500" />
            </Array>
          </mxGeometry>
        </mxCell>
        <mxCell id="NcKbxDm8HYAqXvMeSM9m-58" value="" style="curved=1;startArrow=none;endArrow=block;exitX=0.48;exitY=1;entryX=0.5;entryY=0;rounded=0;" edge="1" parent="1" source="NcKbxDm8HYAqXvMeSM9m-27" target="NcKbxDm8HYAqXvMeSM9m-28">
          <mxGeometry relative="1" as="geometry">
            <Array as="points">
              <mxPoint x="-92" y="1628" />
            </Array>
          </mxGeometry>
        </mxCell>
        <mxCell id="NcKbxDm8HYAqXvMeSM9m-59" value="" style="curved=1;startArrow=none;endArrow=block;exitX=0.55;exitY=1;entryX=0.5;entryY=0;rounded=0;" edge="1" parent="1" source="NcKbxDm8HYAqXvMeSM9m-23" target="NcKbxDm8HYAqXvMeSM9m-29">
          <mxGeometry relative="1" as="geometry">
            <Array as="points">
              <mxPoint x="702" y="1475" />
              <mxPoint x="228" y="1500" />
            </Array>
          </mxGeometry>
        </mxCell>
        <mxCell id="NcKbxDm8HYAqXvMeSM9m-60" value="" style="curved=1;startArrow=none;endArrow=block;exitX=0.67;exitY=1;entryX=0.69;entryY=0;rounded=0;" edge="1" parent="1" source="NcKbxDm8HYAqXvMeSM9m-23" target="NcKbxDm8HYAqXvMeSM9m-30">
          <mxGeometry relative="1" as="geometry">
            <Array as="points">
              <mxPoint x="753" y="1475" />
              <mxPoint x="393" y="1500" />
              <mxPoint x="393" y="1628" />
            </Array>
          </mxGeometry>
        </mxCell>
        <mxCell id="NcKbxDm8HYAqXvMeSM9m-61" value="" style="curved=1;startArrow=none;endArrow=block;exitX=0.89;exitY=1;entryX=0;entryY=0.09;rounded=0;" edge="1" parent="1" source="NcKbxDm8HYAqXvMeSM9m-27" target="NcKbxDm8HYAqXvMeSM9m-30">
          <mxGeometry relative="1" as="geometry">
            <Array as="points">
              <mxPoint x="83" y="1628" />
            </Array>
          </mxGeometry>
        </mxCell>
        <mxCell id="NcKbxDm8HYAqXvMeSM9m-62" value="" style="curved=1;startArrow=none;endArrow=block;exitX=0.5;exitY=1;entryX=0.5;entryY=0;rounded=0;" edge="1" parent="1" source="NcKbxDm8HYAqXvMeSM9m-28" target="NcKbxDm8HYAqXvMeSM9m-31">
          <mxGeometry relative="1" as="geometry">
            <Array as="points" />
          </mxGeometry>
        </mxCell>
      </root>
    </mxGraphModel>
  </diagram>
  <diagram id="rcS4tJgJSIlEDt-AN9ud" name="AoN">
    <mxGraphModel dx="2583" dy="1408" grid="1" gridSize="10" guides="1" tooltips="1" connect="1" arrows="1" fold="1" page="1" pageScale="1" pageWidth="827" pageHeight="1169" math="0" shadow="0">
      <root>
        <mxCell id="0" />
        <mxCell id="1" parent="0" />
        <mxCell id="fBOXxJ-u9MTM6lL2nmct-1" value="&lt;b&gt;&lt;font&gt;Tarea&lt;/font&gt;&lt;/b&gt;&lt;div&gt;&lt;b&gt;&lt;font&gt;1.1&lt;/font&gt;&lt;/b&gt;&lt;/div&gt;&lt;div&gt;&lt;font&gt;t = 16&lt;/font&gt;&lt;/div&gt;" style="rounded=1;whiteSpace=wrap;html=1;fillColor=#dae8fc;strokeColor=#6c8ebf;fontSize=20;" vertex="1" parent="1">
          <mxGeometry x="190" y="670" width="80" height="70" as="geometry" />
        </mxCell>
        <mxCell id="fBOXxJ-u9MTM6lL2nmct-2" value="&lt;b&gt;&lt;font&gt;Tarea&lt;/font&gt;&lt;/b&gt;&lt;div&gt;&lt;b&gt;&lt;font&gt;1.2&lt;/font&gt;&lt;/b&gt;&lt;/div&gt;&lt;div&gt;&lt;font&gt;t = 20&lt;/font&gt;&lt;/div&gt;" style="rounded=1;whiteSpace=wrap;html=1;fillColor=#dae8fc;strokeColor=#6c8ebf;fontSize=20;" vertex="1" parent="1">
          <mxGeometry x="300" y="600" width="80" height="70" as="geometry" />
        </mxCell>
        <mxCell id="fBOXxJ-u9MTM6lL2nmct-3" value="&lt;b&gt;&lt;font&gt;Tarea&lt;/font&gt;&lt;/b&gt;&lt;div&gt;&lt;b&gt;&lt;font&gt;1.3&lt;/font&gt;&lt;/b&gt;&lt;/div&gt;&lt;div&gt;&lt;font&gt;t = 14&lt;/font&gt;&lt;/div&gt;" style="rounded=1;whiteSpace=wrap;html=1;fillColor=#dae8fc;strokeColor=#6c8ebf;fontSize=20;" vertex="1" parent="1">
          <mxGeometry x="414" y="600" width="80" height="70" as="geometry" />
        </mxCell>
        <mxCell id="fBOXxJ-u9MTM6lL2nmct-4" value="&lt;b&gt;&lt;font&gt;Tarea&lt;/font&gt;&lt;/b&gt;&lt;div&gt;&lt;b&gt;&lt;font&gt;1.4&lt;/font&gt;&lt;/b&gt;&lt;/div&gt;&lt;div&gt;&lt;font&gt;t = 30&lt;/font&gt;&lt;/div&gt;" style="rounded=1;whiteSpace=wrap;html=1;fillColor=#dae8fc;strokeColor=#6c8ebf;fontSize=20;" vertex="1" parent="1">
          <mxGeometry x="300" y="740" width="80" height="70" as="geometry" />
        </mxCell>
        <mxCell id="fBOXxJ-u9MTM6lL2nmct-5" value="&lt;b&gt;&lt;font&gt;Tarea&lt;/font&gt;&lt;/b&gt;&lt;div&gt;&lt;b&gt;&lt;font&gt;2.1&lt;/font&gt;&lt;/b&gt;&lt;/div&gt;&lt;div&gt;&lt;font&gt;t = 40&lt;/font&gt;&lt;/div&gt;" style="rounded=1;whiteSpace=wrap;html=1;fillColor=#fff2cc;strokeColor=#d6b656;fontSize=20;" vertex="1" parent="1">
          <mxGeometry x="414" y="790" width="80" height="70" as="geometry" />
        </mxCell>
        <mxCell id="fBOXxJ-u9MTM6lL2nmct-6" value="&lt;b&gt;&lt;font&gt;Tarea&lt;/font&gt;&lt;/b&gt;&lt;div&gt;&lt;span style=&quot;background-color: transparent; color: light-dark(rgb(0, 0, 0), rgb(255, 255, 255));&quot;&gt;&lt;b&gt;&lt;font&gt;2.2&lt;/font&gt;&lt;/b&gt;&lt;/span&gt;&lt;/div&gt;&lt;div&gt;&lt;span style=&quot;background-color: transparent; color: light-dark(rgb(0, 0, 0), rgb(255, 255, 255));&quot;&gt;t = 30&lt;/span&gt;&lt;/div&gt;" style="rounded=1;whiteSpace=wrap;html=1;fillColor=#fff2cc;strokeColor=#d6b656;fontSize=20;" vertex="1" parent="1">
          <mxGeometry x="520" y="720" width="80" height="70" as="geometry" />
        </mxCell>
        <mxCell id="fBOXxJ-u9MTM6lL2nmct-7" value="&lt;b&gt;&lt;font&gt;Tarea&lt;/font&gt;&lt;/b&gt;&lt;div&gt;&lt;span style=&quot;background-color: transparent; color: light-dark(rgb(0, 0, 0), rgb(255, 255, 255));&quot;&gt;&lt;b&gt;&lt;font&gt;2.3&lt;/font&gt;&lt;/b&gt;&lt;/span&gt;&lt;/div&gt;&lt;div&gt;&lt;span style=&quot;background-color: transparent; color: light-dark(rgb(0, 0, 0), rgb(255, 255, 255));&quot;&gt;t = 40&lt;/span&gt;&lt;/div&gt;" style="rounded=1;whiteSpace=wrap;html=1;fillColor=#fff2cc;strokeColor=#d6b656;fontSize=20;" vertex="1" parent="1">
          <mxGeometry x="520" y="860" width="80" height="70" as="geometry" />
        </mxCell>
        <mxCell id="fBOXxJ-u9MTM6lL2nmct-8" value="&lt;b&gt;&lt;font&gt;Tarea&lt;/font&gt;&lt;/b&gt;&lt;div&gt;&lt;span style=&quot;background-color: transparent; color: light-dark(rgb(0, 0, 0), rgb(255, 255, 255));&quot;&gt;&lt;b&gt;&lt;font&gt;2.4&lt;/font&gt;&lt;/b&gt;&lt;/span&gt;&lt;/div&gt;&lt;div&gt;&lt;span style=&quot;background-color: transparent; color: light-dark(rgb(0, 0, 0), rgb(255, 255, 255));&quot;&gt;t = 40&lt;/span&gt;&lt;/div&gt;" style="rounded=1;whiteSpace=wrap;html=1;fillColor=#fff2cc;strokeColor=#d6b656;fontSize=20;" vertex="1" parent="1">
          <mxGeometry x="650" y="720" width="80" height="70" as="geometry" />
        </mxCell>
        <mxCell id="fBOXxJ-u9MTM6lL2nmct-9" value="&lt;b&gt;&lt;font&gt;Tarea&lt;/font&gt;&lt;/b&gt;&lt;div&gt;&lt;span style=&quot;background-color: transparent; color: light-dark(rgb(0, 0, 0), rgb(255, 255, 255));&quot;&gt;&lt;b&gt;&lt;font&gt;2.5&lt;/font&gt;&lt;/b&gt;&lt;/span&gt;&lt;/div&gt;&lt;div&gt;&lt;span style=&quot;background-color: transparent; color: light-dark(rgb(0, 0, 0), rgb(255, 255, 255));&quot;&gt;t = 40&lt;/span&gt;&lt;/div&gt;" style="rounded=1;whiteSpace=wrap;html=1;fillColor=#fff2cc;strokeColor=#d6b656;fontSize=20;" vertex="1" parent="1">
          <mxGeometry x="650" y="860" width="80" height="70" as="geometry" />
        </mxCell>
        <mxCell id="fBOXxJ-u9MTM6lL2nmct-10" value="&lt;b&gt;&lt;font&gt;Tarea&lt;/font&gt;&lt;/b&gt;&lt;div&gt;&lt;b&gt;&lt;font&gt;3.1&lt;/font&gt;&lt;/b&gt;&lt;/div&gt;&lt;div&gt;&lt;font&gt;t = 40&lt;/font&gt;&lt;/div&gt;" style="rounded=1;whiteSpace=wrap;html=1;fillColor=#f8cecc;strokeColor=#b85450;fontSize=20;" vertex="1" parent="1">
          <mxGeometry x="770" y="600" width="80" height="70" as="geometry" />
        </mxCell>
        <mxCell id="fBOXxJ-u9MTM6lL2nmct-11" value="&lt;b&gt;&lt;font&gt;Tarea&lt;/font&gt;&lt;/b&gt;&lt;div&gt;&lt;b&gt;&lt;font&gt;3.2&lt;/font&gt;&lt;/b&gt;&lt;/div&gt;&lt;div&gt;&lt;font&gt;t = 8&lt;/font&gt;&lt;/div&gt;" style="rounded=1;whiteSpace=wrap;html=1;fillColor=#f8cecc;strokeColor=#b85450;fontSize=20;" vertex="1" parent="1">
          <mxGeometry x="570" y="600" width="80" height="70" as="geometry" />
        </mxCell>
        <mxCell id="fBOXxJ-u9MTM6lL2nmct-12" value="&lt;b&gt;&lt;font&gt;Tarea&lt;/font&gt;&lt;/b&gt;&lt;div&gt;&lt;span style=&quot;background-color: transparent; color: light-dark(rgb(0, 0, 0), rgb(255, 255, 255));&quot;&gt;&lt;b&gt;&lt;font&gt;3.3&lt;/font&gt;&lt;/b&gt;&lt;/span&gt;&lt;/div&gt;&lt;div&gt;&lt;span style=&quot;background-color: transparent; color: light-dark(rgb(0, 0, 0), rgb(255, 255, 255));&quot;&gt;t = 40&lt;/span&gt;&lt;/div&gt;" style="rounded=1;whiteSpace=wrap;html=1;fillColor=#f8cecc;strokeColor=#b85450;fontSize=20;" vertex="1" parent="1">
          <mxGeometry x="870" y="680" width="80" height="70" as="geometry" />
        </mxCell>
        <mxCell id="fBOXxJ-u9MTM6lL2nmct-13" value="&lt;b&gt;&lt;font&gt;Tarea&lt;/font&gt;&lt;/b&gt;&lt;div&gt;&lt;b&gt;&lt;font&gt;3.4&lt;/font&gt;&lt;/b&gt;&lt;/div&gt;&lt;div&gt;&lt;font&gt;t = 40&lt;/font&gt;&lt;/div&gt;" style="rounded=1;whiteSpace=wrap;html=1;fillColor=#f8cecc;strokeColor=#b85450;fontSize=20;" vertex="1" parent="1">
          <mxGeometry x="977" y="680" width="80" height="70" as="geometry" />
        </mxCell>
        <mxCell id="fBOXxJ-u9MTM6lL2nmct-14" value="&lt;b&gt;&lt;font&gt;Tarea&lt;/font&gt;&lt;/b&gt;&lt;div&gt;&lt;b&gt;&lt;font&gt;4.1&lt;/font&gt;&lt;/b&gt;&lt;/div&gt;&lt;div&gt;&lt;font&gt;t = 40&lt;/font&gt;&lt;/div&gt;" style="rounded=1;whiteSpace=wrap;html=1;fillColor=#e1d5e7;strokeColor=#9673a6;fontSize=20;" vertex="1" parent="1">
          <mxGeometry x="650" y="960" width="80" height="70" as="geometry" />
        </mxCell>
        <mxCell id="fBOXxJ-u9MTM6lL2nmct-15" value="&lt;b&gt;&lt;font&gt;Tarea&lt;/font&gt;&lt;/b&gt;&lt;div&gt;&lt;span style=&quot;background-color: transparent; color: light-dark(rgb(0, 0, 0), rgb(255, 255, 255));&quot;&gt;&lt;b&gt;&lt;font&gt;4.2&lt;/font&gt;&lt;/b&gt;&lt;/span&gt;&lt;/div&gt;&lt;div&gt;&lt;span style=&quot;background-color: transparent; color: light-dark(rgb(0, 0, 0), rgb(255, 255, 255));&quot;&gt;t = 8&lt;/span&gt;&lt;/div&gt;" style="rounded=1;whiteSpace=wrap;html=1;fillColor=#e1d5e7;strokeColor=#9673a6;fontSize=20;" vertex="1" parent="1">
          <mxGeometry x="414" y="960" width="80" height="70" as="geometry" />
        </mxCell>
        <mxCell id="OZw5-kihP6LqGB1YNpwU-38" style="edgeStyle=orthogonalEdgeStyle;rounded=0;orthogonalLoop=1;jettySize=auto;html=1;exitX=1;exitY=0.5;exitDx=0;exitDy=0;entryX=0;entryY=0.5;entryDx=0;entryDy=0;strokeWidth=2;strokeColor=light-dark(#ff0000, #ededed);fontSize=20;" edge="1" parent="1" source="fBOXxJ-u9MTM6lL2nmct-16" target="fBOXxJ-u9MTM6lL2nmct-17">
          <mxGeometry relative="1" as="geometry">
            <Array as="points">
              <mxPoint x="1180" y="995" />
              <mxPoint x="1180" y="885" />
            </Array>
          </mxGeometry>
        </mxCell>
        <mxCell id="fBOXxJ-u9MTM6lL2nmct-16" value="&lt;b&gt;&lt;font&gt;Tarea&lt;/font&gt;&lt;/b&gt;&lt;div&gt;&lt;span style=&quot;background-color: transparent; color: light-dark(rgb(0, 0, 0), rgb(255, 255, 255));&quot;&gt;&lt;b&gt;&lt;font&gt;4.3&lt;/font&gt;&lt;/b&gt;&lt;/span&gt;&lt;/div&gt;&lt;div&gt;&lt;span style=&quot;background-color: transparent; color: light-dark(rgb(0, 0, 0), rgb(255, 255, 255));&quot;&gt;t = 40&lt;/span&gt;&lt;/div&gt;" style="rounded=1;whiteSpace=wrap;html=1;fillColor=#e1d5e7;strokeColor=#9673a6;fontSize=20;" vertex="1" parent="1">
          <mxGeometry x="1094" y="960" width="80" height="70" as="geometry" />
        </mxCell>
        <mxCell id="fBOXxJ-u9MTM6lL2nmct-17" value="&lt;b&gt;&lt;font&gt;Tarea&lt;/font&gt;&lt;/b&gt;&lt;div&gt;&lt;b&gt;&lt;font&gt;4.4&lt;/font&gt;&lt;/b&gt;&lt;/div&gt;&lt;div&gt;&lt;font&gt;t = 40&lt;/font&gt;&lt;/div&gt;" style="rounded=1;whiteSpace=wrap;html=1;fillColor=#e1d5e7;strokeColor=#9673a6;fontSize=20;" vertex="1" parent="1">
          <mxGeometry x="1194" y="850" width="80" height="70" as="geometry" />
        </mxCell>
        <mxCell id="OZw5-kihP6LqGB1YNpwU-34" style="edgeStyle=orthogonalEdgeStyle;rounded=0;orthogonalLoop=1;jettySize=auto;html=1;exitX=1;exitY=0.5;exitDx=0;exitDy=0;entryX=0.5;entryY=0;entryDx=0;entryDy=0;strokeWidth=2;fontSize=20;" edge="1" parent="1" source="fBOXxJ-u9MTM6lL2nmct-18" target="OZw5-kihP6LqGB1YNpwU-32">
          <mxGeometry relative="1" as="geometry" />
        </mxCell>
        <mxCell id="fBOXxJ-u9MTM6lL2nmct-18" value="&lt;b&gt;&lt;font&gt;Tarea&lt;/font&gt;&lt;/b&gt;&lt;div&gt;&lt;span style=&quot;background-color: transparent; color: light-dark(rgb(0, 0, 0), rgb(255, 255, 255));&quot;&gt;&lt;b&gt;&lt;font&gt;5.1&lt;/font&gt;&lt;/b&gt;&lt;/span&gt;&lt;/div&gt;&lt;div&gt;&lt;span style=&quot;background-color: transparent; color: light-dark(rgb(0, 0, 0), rgb(255, 255, 255));&quot;&gt;t = 5&lt;/span&gt;&lt;/div&gt;" style="rounded=1;whiteSpace=wrap;html=1;fillColor=#d5e8d4;strokeColor=#82b366;fontSize=20;" vertex="1" parent="1">
          <mxGeometry x="1288" y="460" width="80" height="70" as="geometry" />
        </mxCell>
        <mxCell id="OZw5-kihP6LqGB1YNpwU-27" style="edgeStyle=orthogonalEdgeStyle;rounded=0;orthogonalLoop=1;jettySize=auto;html=1;exitX=1;exitY=0.5;exitDx=0;exitDy=0;entryX=0;entryY=0.5;entryDx=0;entryDy=0;strokeWidth=2;strokeColor=light-dark(#ff0000, #ededed);fontSize=20;" edge="1" parent="1" source="fBOXxJ-u9MTM6lL2nmct-19" target="fBOXxJ-u9MTM6lL2nmct-23">
          <mxGeometry relative="1" as="geometry" />
        </mxCell>
        <mxCell id="fBOXxJ-u9MTM6lL2nmct-19" value="&lt;b&gt;&lt;font&gt;Tarea&lt;/font&gt;&lt;/b&gt;&lt;div&gt;&lt;b&gt;&lt;font&gt;5.2&lt;/font&gt;&lt;/b&gt;&lt;/div&gt;&lt;div&gt;&lt;span style=&quot;background-color: transparent; color: light-dark(rgb(0, 0, 0), rgb(255, 255, 255));&quot;&gt;t = 15&lt;/span&gt;&lt;/div&gt;" style="rounded=1;whiteSpace=wrap;html=1;fillColor=#d5e8d4;strokeColor=#82b366;fontSize=20;" vertex="1" parent="1">
          <mxGeometry x="1510" y="600" width="80" height="70" as="geometry" />
        </mxCell>
        <mxCell id="OZw5-kihP6LqGB1YNpwU-29" style="edgeStyle=orthogonalEdgeStyle;rounded=0;orthogonalLoop=1;jettySize=auto;html=1;exitX=1;exitY=0.5;exitDx=0;exitDy=0;entryX=0;entryY=0.5;entryDx=0;entryDy=0;strokeWidth=2;strokeColor=light-dark(#ff0000, #ededed);fontSize=20;" edge="1" parent="1" source="fBOXxJ-u9MTM6lL2nmct-20" target="fBOXxJ-u9MTM6lL2nmct-21">
          <mxGeometry relative="1" as="geometry" />
        </mxCell>
        <mxCell id="fBOXxJ-u9MTM6lL2nmct-20" value="&lt;b&gt;&lt;font&gt;Tarea&lt;br&gt;&lt;/font&gt;&lt;/b&gt;&lt;div&gt;&lt;b style=&quot;background-color: transparent; color: light-dark(rgb(0, 0, 0), rgb(255, 255, 255));&quot;&gt;&lt;font&gt;5.3&amp;nbsp;&lt;/font&gt;&lt;/b&gt;&lt;/div&gt;&lt;div&gt;&lt;span style=&quot;background-color: transparent; color: light-dark(rgb(0, 0, 0), rgb(255, 255, 255));&quot;&gt;t = 20&lt;/span&gt;&lt;/div&gt;" style="rounded=1;whiteSpace=wrap;html=1;fillColor=#d5e8d4;strokeColor=#82b366;fontSize=20;" vertex="1" parent="1">
          <mxGeometry x="1295" y="600" width="80" height="70" as="geometry" />
        </mxCell>
        <mxCell id="OZw5-kihP6LqGB1YNpwU-28" style="edgeStyle=orthogonalEdgeStyle;rounded=0;orthogonalLoop=1;jettySize=auto;html=1;exitX=1;exitY=0.5;exitDx=0;exitDy=0;entryX=0;entryY=0.5;entryDx=0;entryDy=0;strokeWidth=2;strokeColor=light-dark(#ff0000, #ededed);fontSize=20;" edge="1" parent="1" source="fBOXxJ-u9MTM6lL2nmct-21" target="fBOXxJ-u9MTM6lL2nmct-19">
          <mxGeometry relative="1" as="geometry" />
        </mxCell>
        <mxCell id="fBOXxJ-u9MTM6lL2nmct-21" value="&lt;b&gt;&lt;font&gt;Tarea&lt;br&gt;&lt;/font&gt;&lt;/b&gt;&lt;div&gt;&lt;b style=&quot;background-color: transparent; color: light-dark(rgb(0, 0, 0), rgb(255, 255, 255));&quot;&gt;&lt;font&gt;5.4&amp;nbsp;&lt;/font&gt;&lt;/b&gt;&lt;/div&gt;&lt;div&gt;&lt;span style=&quot;background-color: transparent; color: light-dark(rgb(0, 0, 0), rgb(255, 255, 255));&quot;&gt;t = 40&lt;/span&gt;&lt;/div&gt;" style="rounded=1;whiteSpace=wrap;html=1;fillColor=#d5e8d4;strokeColor=#82b366;fontSize=20;" vertex="1" parent="1">
          <mxGeometry x="1403" y="600" width="80" height="70" as="geometry" />
        </mxCell>
        <mxCell id="OZw5-kihP6LqGB1YNpwU-33" style="edgeStyle=orthogonalEdgeStyle;rounded=0;orthogonalLoop=1;jettySize=auto;html=1;exitX=1;exitY=0.5;exitDx=0;exitDy=0;entryX=0;entryY=0.5;entryDx=0;entryDy=0;strokeWidth=2;strokeColor=light-dark(#ff0000, #ededed);fontSize=20;" edge="1" parent="1" source="fBOXxJ-u9MTM6lL2nmct-22" target="OZw5-kihP6LqGB1YNpwU-32">
          <mxGeometry relative="1" as="geometry" />
        </mxCell>
        <mxCell id="fBOXxJ-u9MTM6lL2nmct-22" value="&lt;b&gt;&lt;font&gt;Tarea&lt;/font&gt;&lt;/b&gt;&lt;div&gt;&lt;b&gt;&lt;font&gt;6.1&lt;/font&gt;&lt;/b&gt;&lt;/div&gt;&lt;div&gt;&lt;font&gt;t = 30&lt;/font&gt;&lt;/div&gt;" style="rounded=1;whiteSpace=wrap;html=1;fillColor=#fad7ac;strokeColor=#b46504;fontSize=20;" vertex="1" parent="1">
          <mxGeometry x="1730" y="600" width="80" height="70" as="geometry" />
        </mxCell>
        <mxCell id="OZw5-kihP6LqGB1YNpwU-35" style="edgeStyle=orthogonalEdgeStyle;rounded=0;orthogonalLoop=1;jettySize=auto;html=1;exitX=1;exitY=0.5;exitDx=0;exitDy=0;entryX=0;entryY=0.5;entryDx=0;entryDy=0;strokeWidth=2;strokeColor=light-dark(#ff0000, #ededed);fontSize=20;" edge="1" parent="1" source="fBOXxJ-u9MTM6lL2nmct-23" target="fBOXxJ-u9MTM6lL2nmct-22">
          <mxGeometry relative="1" as="geometry" />
        </mxCell>
        <mxCell id="fBOXxJ-u9MTM6lL2nmct-23" value="&lt;b&gt;&lt;font&gt;Tarea&lt;br&gt;&lt;/font&gt;&lt;/b&gt;&lt;div&gt;&lt;b style=&quot;background-color: transparent; color: light-dark(rgb(0, 0, 0), rgb(255, 255, 255));&quot;&gt;&lt;font&gt;5.5&amp;nbsp;&lt;/font&gt;&lt;/b&gt;&lt;/div&gt;&lt;div&gt;&lt;span style=&quot;background-color: transparent; color: light-dark(rgb(0, 0, 0), rgb(255, 255, 255));&quot;&gt;t = 30&lt;/span&gt;&lt;/div&gt;" style="rounded=1;whiteSpace=wrap;html=1;fillColor=#d5e8d4;strokeColor=#82b366;fontSize=20;" vertex="1" parent="1">
          <mxGeometry x="1618" y="600" width="80" height="70" as="geometry" />
        </mxCell>
        <mxCell id="OZw5-kihP6LqGB1YNpwU-30" style="edgeStyle=orthogonalEdgeStyle;rounded=0;orthogonalLoop=1;jettySize=auto;html=1;exitX=1;exitY=0.5;exitDx=0;exitDy=0;entryX=0;entryY=0.5;entryDx=0;entryDy=0;strokeWidth=2;fontSize=20;" edge="1" parent="1" source="fBOXxJ-u9MTM6lL2nmct-24" target="fBOXxJ-u9MTM6lL2nmct-25">
          <mxGeometry relative="1" as="geometry" />
        </mxCell>
        <mxCell id="fBOXxJ-u9MTM6lL2nmct-24" value="&lt;b&gt;&lt;font&gt;Tarea&lt;br&gt;&lt;/font&gt;&lt;/b&gt;&lt;div&gt;&lt;b style=&quot;background-color: transparent; color: light-dark(rgb(0, 0, 0), rgb(255, 255, 255));&quot;&gt;&lt;font&gt;5.6&amp;nbsp;&lt;/font&gt;&lt;/b&gt;&lt;/div&gt;&lt;div&gt;&lt;span style=&quot;background-color: transparent; color: light-dark(rgb(0, 0, 0), rgb(255, 255, 255));&quot;&gt;t = 20&lt;/span&gt;&lt;/div&gt;" style="rounded=1;whiteSpace=wrap;html=1;fillColor=#d5e8d4;strokeColor=#82b366;fontSize=20;" vertex="1" parent="1">
          <mxGeometry x="1295" y="720" width="80" height="70" as="geometry" />
        </mxCell>
        <mxCell id="OZw5-kihP6LqGB1YNpwU-36" style="edgeStyle=orthogonalEdgeStyle;rounded=0;orthogonalLoop=1;jettySize=auto;html=1;exitX=1;exitY=0.5;exitDx=0;exitDy=0;entryX=0;entryY=0.5;entryDx=0;entryDy=0;strokeWidth=2;fontSize=20;" edge="1" parent="1" source="fBOXxJ-u9MTM6lL2nmct-25" target="OZw5-kihP6LqGB1YNpwU-32">
          <mxGeometry relative="1" as="geometry" />
        </mxCell>
        <mxCell id="fBOXxJ-u9MTM6lL2nmct-25" value="&lt;b&gt;&lt;font&gt;Tarea&lt;br&gt;&lt;/font&gt;&lt;/b&gt;&lt;div&gt;&lt;b style=&quot;background-color: transparent; color: light-dark(rgb(0, 0, 0), rgb(255, 255, 255));&quot;&gt;&lt;font&gt;5.7&amp;nbsp;&lt;/font&gt;&lt;/b&gt;&lt;/div&gt;&lt;div&gt;&lt;span style=&quot;background-color: transparent; color: light-dark(rgb(0, 0, 0), rgb(255, 255, 255));&quot;&gt;t = 14&lt;/span&gt;&lt;/div&gt;" style="rounded=1;whiteSpace=wrap;html=1;fillColor=#d5e8d4;strokeColor=#82b366;fontSize=20;" vertex="1" parent="1">
          <mxGeometry x="1403" y="720" width="80" height="70" as="geometry" />
        </mxCell>
        <mxCell id="fBOXxJ-u9MTM6lL2nmct-26" value="&lt;b&gt;&lt;font&gt;Inicio&lt;/font&gt;&lt;/b&gt;&lt;div&gt;&lt;font&gt;24/06/2025&lt;/font&gt;&lt;/div&gt;" style="rounded=1;whiteSpace=wrap;html=1;fillColor=#bac8d3;strokeColor=#23445d;fontSize=20;" vertex="1" parent="1">
          <mxGeometry x="30" y="675" width="130" height="60" as="geometry" />
        </mxCell>
        <mxCell id="OZw5-kihP6LqGB1YNpwU-1" value="" style="endArrow=classic;html=1;rounded=0;exitX=1;exitY=0.5;exitDx=0;exitDy=0;entryX=0;entryY=0.5;entryDx=0;entryDy=0;strokeWidth=2;strokeColor=light-dark(#ff0000, #ededed);fontSize=20;" edge="1" parent="1" source="fBOXxJ-u9MTM6lL2nmct-26" target="fBOXxJ-u9MTM6lL2nmct-1">
          <mxGeometry width="50" height="50" relative="1" as="geometry">
            <mxPoint x="390" y="590" as="sourcePoint" />
            <mxPoint x="440" y="540" as="targetPoint" />
          </mxGeometry>
        </mxCell>
        <mxCell id="OZw5-kihP6LqGB1YNpwU-3" value="" style="endArrow=classic;html=1;rounded=0;entryX=0;entryY=0.429;entryDx=0;entryDy=0;entryPerimeter=0;exitX=1;exitY=0.5;exitDx=0;exitDy=0;strokeWidth=2;fontSize=20;" edge="1" parent="1" source="fBOXxJ-u9MTM6lL2nmct-1" target="fBOXxJ-u9MTM6lL2nmct-2">
          <mxGeometry width="50" height="50" relative="1" as="geometry">
            <mxPoint x="330" y="740" as="sourcePoint" />
            <mxPoint x="380" y="690" as="targetPoint" />
            <Array as="points">
              <mxPoint x="280" y="705" />
              <mxPoint x="280" y="630" />
            </Array>
          </mxGeometry>
        </mxCell>
        <mxCell id="OZw5-kihP6LqGB1YNpwU-4" value="" style="endArrow=classic;html=1;rounded=0;entryX=0;entryY=0.5;entryDx=0;entryDy=0;exitX=0.992;exitY=0.516;exitDx=0;exitDy=0;strokeWidth=2;exitPerimeter=0;fontSize=20;" edge="1" parent="1" source="fBOXxJ-u9MTM6lL2nmct-5" target="fBOXxJ-u9MTM6lL2nmct-6">
          <mxGeometry width="50" height="50" relative="1" as="geometry">
            <mxPoint x="490" y="825" as="sourcePoint" />
            <mxPoint x="520" y="750" as="targetPoint" />
            <Array as="points">
              <mxPoint x="500" y="826" />
              <mxPoint x="500" y="755" />
            </Array>
          </mxGeometry>
        </mxCell>
        <mxCell id="OZw5-kihP6LqGB1YNpwU-5" value="" style="endArrow=classic;html=1;rounded=0;exitX=1;exitY=0.5;exitDx=0;exitDy=0;entryX=0;entryY=0.5;entryDx=0;entryDy=0;strokeWidth=2;fontSize=20;" edge="1" parent="1" source="fBOXxJ-u9MTM6lL2nmct-2" target="fBOXxJ-u9MTM6lL2nmct-3">
          <mxGeometry width="50" height="50" relative="1" as="geometry">
            <mxPoint x="384" y="634.73" as="sourcePoint" />
            <mxPoint x="414" y="634.73" as="targetPoint" />
          </mxGeometry>
        </mxCell>
        <mxCell id="OZw5-kihP6LqGB1YNpwU-6" value="" style="endArrow=classic;html=1;rounded=0;entryX=0;entryY=0.5;entryDx=0;entryDy=0;exitX=1;exitY=0.5;exitDx=0;exitDy=0;strokeWidth=2;strokeColor=light-dark(#ff0000, #ededed);fontSize=20;" edge="1" parent="1" source="fBOXxJ-u9MTM6lL2nmct-1" target="fBOXxJ-u9MTM6lL2nmct-4">
          <mxGeometry width="50" height="50" relative="1" as="geometry">
            <mxPoint x="310" y="755" as="sourcePoint" />
            <mxPoint x="340" y="680" as="targetPoint" />
            <Array as="points">
              <mxPoint x="280" y="705" />
              <mxPoint x="280" y="775" />
            </Array>
          </mxGeometry>
        </mxCell>
        <mxCell id="OZw5-kihP6LqGB1YNpwU-7" value="" style="endArrow=classic;html=1;rounded=0;entryX=0;entryY=0.5;entryDx=0;entryDy=0;exitX=1;exitY=0.5;exitDx=0;exitDy=0;strokeWidth=2;strokeColor=light-dark(#ff0000, #ededed);fontSize=20;" edge="1" parent="1" source="fBOXxJ-u9MTM6lL2nmct-4" target="fBOXxJ-u9MTM6lL2nmct-5">
          <mxGeometry width="50" height="50" relative="1" as="geometry">
            <mxPoint x="384" y="770" as="sourcePoint" />
            <mxPoint x="414" y="840" as="targetPoint" />
            <Array as="points">
              <mxPoint x="394" y="775" />
              <mxPoint x="394" y="825" />
            </Array>
          </mxGeometry>
        </mxCell>
        <mxCell id="OZw5-kihP6LqGB1YNpwU-8" value="" style="endArrow=classic;html=1;rounded=0;entryX=0;entryY=0.5;entryDx=0;entryDy=0;exitX=1.004;exitY=0.516;exitDx=0;exitDy=0;strokeWidth=2;exitPerimeter=0;strokeColor=light-dark(#ff0000, #ededed);fontSize=20;" edge="1" parent="1" source="fBOXxJ-u9MTM6lL2nmct-5" target="fBOXxJ-u9MTM6lL2nmct-7">
          <mxGeometry width="50" height="50" relative="1" as="geometry">
            <mxPoint x="500" y="830" as="sourcePoint" />
            <mxPoint x="530" y="900" as="targetPoint" />
            <Array as="points">
              <mxPoint x="500" y="826" />
              <mxPoint x="500" y="870" />
              <mxPoint x="500" y="895" />
            </Array>
          </mxGeometry>
        </mxCell>
        <mxCell id="OZw5-kihP6LqGB1YNpwU-9" value="" style="endArrow=classic;html=1;rounded=0;exitX=1;exitY=0.5;exitDx=0;exitDy=0;entryX=0;entryY=0.5;entryDx=0;entryDy=0;strokeWidth=2;fontSize=20;" edge="1" parent="1" source="fBOXxJ-u9MTM6lL2nmct-6" target="fBOXxJ-u9MTM6lL2nmct-8">
          <mxGeometry width="50" height="50" relative="1" as="geometry">
            <mxPoint x="620" y="700" as="sourcePoint" />
            <mxPoint x="670" y="650" as="targetPoint" />
          </mxGeometry>
        </mxCell>
        <mxCell id="OZw5-kihP6LqGB1YNpwU-10" value="" style="endArrow=classic;html=1;rounded=0;strokeWidth=2;fontSize=20;" edge="1" parent="1" source="fBOXxJ-u9MTM6lL2nmct-7" target="fBOXxJ-u9MTM6lL2nmct-9">
          <mxGeometry width="50" height="50" relative="1" as="geometry">
            <mxPoint x="600" y="894.64" as="sourcePoint" />
            <mxPoint x="650" y="894.64" as="targetPoint" />
          </mxGeometry>
        </mxCell>
        <mxCell id="OZw5-kihP6LqGB1YNpwU-13" value="" style="endArrow=classic;html=1;rounded=0;entryX=0;entryY=0.5;entryDx=0;entryDy=0;exitX=1;exitY=0.5;exitDx=0;exitDy=0;strokeWidth=2;strokeColor=light-dark(#ff0000, #ededed);fontSize=20;" edge="1" parent="1" source="fBOXxJ-u9MTM6lL2nmct-7" target="fBOXxJ-u9MTM6lL2nmct-8">
          <mxGeometry width="50" height="50" relative="1" as="geometry">
            <mxPoint x="340" y="870" as="sourcePoint" />
            <mxPoint x="390" y="820" as="targetPoint" />
          </mxGeometry>
        </mxCell>
        <mxCell id="OZw5-kihP6LqGB1YNpwU-14" value="" style="endArrow=classic;html=1;rounded=0;entryX=0;entryY=0.5;entryDx=0;entryDy=0;exitX=1;exitY=0.5;exitDx=0;exitDy=0;strokeWidth=2;fontSize=20;" edge="1" parent="1" source="fBOXxJ-u9MTM6lL2nmct-6" target="fBOXxJ-u9MTM6lL2nmct-9">
          <mxGeometry width="50" height="50" relative="1" as="geometry">
            <mxPoint x="730" y="930" as="sourcePoint" />
            <mxPoint x="780" y="790" as="targetPoint" />
          </mxGeometry>
        </mxCell>
        <mxCell id="OZw5-kihP6LqGB1YNpwU-15" value="" style="endArrow=classic;html=1;rounded=0;entryX=0;entryY=0.5;entryDx=0;entryDy=0;strokeWidth=2;exitX=1;exitY=0.5;exitDx=0;exitDy=0;fontSize=20;" edge="1" parent="1" source="fBOXxJ-u9MTM6lL2nmct-3" target="fBOXxJ-u9MTM6lL2nmct-11">
          <mxGeometry width="50" height="50" relative="1" as="geometry">
            <mxPoint x="490" y="635" as="sourcePoint" />
            <mxPoint x="454" y="640" as="targetPoint" />
          </mxGeometry>
        </mxCell>
        <mxCell id="OZw5-kihP6LqGB1YNpwU-16" value="" style="endArrow=classic;html=1;rounded=0;entryX=0;entryY=0.5;entryDx=0;entryDy=0;strokeWidth=2;fontSize=20;" edge="1" parent="1" source="fBOXxJ-u9MTM6lL2nmct-11" target="fBOXxJ-u9MTM6lL2nmct-10">
          <mxGeometry width="50" height="50" relative="1" as="geometry">
            <mxPoint x="652" y="634.63" as="sourcePoint" />
            <mxPoint x="728" y="634.63" as="targetPoint" />
          </mxGeometry>
        </mxCell>
        <mxCell id="OZw5-kihP6LqGB1YNpwU-17" value="" style="endArrow=classic;html=1;rounded=0;entryX=0.019;entryY=0.518;entryDx=0;entryDy=0;exitX=1;exitY=0.5;exitDx=0;exitDy=0;strokeWidth=2;entryPerimeter=0;strokeColor=light-dark(#ff0000, #ededed);fontSize=20;" edge="1" parent="1" source="fBOXxJ-u9MTM6lL2nmct-10" target="fBOXxJ-u9MTM6lL2nmct-12">
          <mxGeometry width="50" height="50" relative="1" as="geometry">
            <mxPoint x="880" y="630" as="sourcePoint" />
            <mxPoint x="910" y="700" as="targetPoint" />
            <Array as="points">
              <mxPoint x="860" y="635" />
              <mxPoint x="860" y="715" />
            </Array>
          </mxGeometry>
        </mxCell>
        <mxCell id="OZw5-kihP6LqGB1YNpwU-19" value="" style="endArrow=classic;html=1;rounded=0;entryX=0;entryY=0.5;entryDx=0;entryDy=0;exitX=1;exitY=0.5;exitDx=0;exitDy=0;strokeWidth=2;fontSize=20;" edge="1" parent="1" source="fBOXxJ-u9MTM6lL2nmct-9" target="fBOXxJ-u9MTM6lL2nmct-10">
          <mxGeometry width="50" height="50" relative="1" as="geometry">
            <mxPoint x="750" y="860" as="sourcePoint" />
            <mxPoint x="810" y="740" as="targetPoint" />
            <Array as="points">
              <mxPoint x="750" y="895" />
              <mxPoint x="750" y="635" />
            </Array>
          </mxGeometry>
        </mxCell>
        <mxCell id="OZw5-kihP6LqGB1YNpwU-20" value="" style="endArrow=classic;html=1;rounded=0;entryX=-0.036;entryY=0.492;entryDx=0;entryDy=0;entryPerimeter=0;exitX=1;exitY=0.5;exitDx=0;exitDy=0;strokeWidth=2;strokeColor=light-dark(#ff0000, #ededed);fontSize=20;" edge="1" parent="1" source="fBOXxJ-u9MTM6lL2nmct-12" target="fBOXxJ-u9MTM6lL2nmct-13">
          <mxGeometry width="50" height="50" relative="1" as="geometry">
            <mxPoint x="860" y="730" as="sourcePoint" />
            <mxPoint x="910" y="680" as="targetPoint" />
          </mxGeometry>
        </mxCell>
        <mxCell id="OZw5-kihP6LqGB1YNpwU-21" value="" style="endArrow=classic;html=1;rounded=0;entryX=0;entryY=0.5;entryDx=0;entryDy=0;exitX=1;exitY=0.5;exitDx=0;exitDy=0;strokeWidth=2;fontSize=20;" edge="1" parent="1" source="fBOXxJ-u9MTM6lL2nmct-1" target="fBOXxJ-u9MTM6lL2nmct-18">
          <mxGeometry width="50" height="50" relative="1" as="geometry">
            <mxPoint x="280" y="725" as="sourcePoint" />
            <mxPoint x="310" y="650" as="targetPoint" />
            <Array as="points">
              <mxPoint x="280" y="705" />
              <mxPoint x="280" y="500" />
            </Array>
          </mxGeometry>
        </mxCell>
        <mxCell id="OZw5-kihP6LqGB1YNpwU-22" value="" style="endArrow=classic;html=1;rounded=0;entryX=0;entryY=0.5;entryDx=0;entryDy=0;exitX=1;exitY=0.5;exitDx=0;exitDy=0;strokeWidth=2;fontSize=20;" edge="1" parent="1" source="fBOXxJ-u9MTM6lL2nmct-1" target="fBOXxJ-u9MTM6lL2nmct-15">
          <mxGeometry width="50" height="50" relative="1" as="geometry">
            <mxPoint x="270" y="810" as="sourcePoint" />
            <mxPoint x="300" y="880" as="targetPoint" />
            <Array as="points">
              <mxPoint x="280" y="705" />
              <mxPoint x="280" y="995" />
            </Array>
          </mxGeometry>
        </mxCell>
        <mxCell id="OZw5-kihP6LqGB1YNpwU-23" value="" style="endArrow=classic;html=1;rounded=0;entryX=0;entryY=0.5;entryDx=0;entryDy=0;strokeWidth=2;exitX=1;exitY=0.5;exitDx=0;exitDy=0;fontSize=20;" edge="1" parent="1" target="fBOXxJ-u9MTM6lL2nmct-14">
          <mxGeometry width="50" height="50" relative="1" as="geometry">
            <mxPoint x="494" y="994.62" as="sourcePoint" />
            <mxPoint x="570" y="994.62" as="targetPoint" />
          </mxGeometry>
        </mxCell>
        <mxCell id="OZw5-kihP6LqGB1YNpwU-24" value="" style="endArrow=classic;html=1;rounded=0;entryX=0;entryY=0.5;entryDx=0;entryDy=0;strokeWidth=2;fontSize=20;" edge="1" parent="1" target="fBOXxJ-u9MTM6lL2nmct-16">
          <mxGeometry width="50" height="50" relative="1" as="geometry">
            <mxPoint x="730" y="995" as="sourcePoint" />
            <mxPoint x="888" y="995" as="targetPoint" />
          </mxGeometry>
        </mxCell>
        <mxCell id="OZw5-kihP6LqGB1YNpwU-25" value="" style="endArrow=classic;html=1;rounded=0;entryX=0;entryY=0.5;entryDx=0;entryDy=0;strokeWidth=2;exitX=1;exitY=0.5;exitDx=0;exitDy=0;strokeColor=light-dark(#ff0000, #ededed);fontSize=20;" edge="1" parent="1" source="fBOXxJ-u9MTM6lL2nmct-13" target="fBOXxJ-u9MTM6lL2nmct-16">
          <mxGeometry width="50" height="50" relative="1" as="geometry">
            <mxPoint x="1060" y="710" as="sourcePoint" />
            <mxPoint x="1116" y="839" as="targetPoint" />
            <Array as="points">
              <mxPoint x="1080" y="715" />
              <mxPoint x="1080" y="995" />
            </Array>
          </mxGeometry>
        </mxCell>
        <mxCell id="OZw5-kihP6LqGB1YNpwU-32" value="&lt;div&gt;&lt;font&gt;&lt;b&gt;Fin&lt;/b&gt;&lt;/font&gt;&lt;/div&gt;&lt;div&gt;&lt;font&gt;04/2026&lt;/font&gt;&lt;/div&gt;" style="rounded=1;whiteSpace=wrap;html=1;fillColor=#bac8d3;strokeColor=#23445d;fontSize=20;" vertex="1" parent="1">
          <mxGeometry x="1850" y="725" width="130" height="60" as="geometry" />
        </mxCell>
        <mxCell id="OZw5-kihP6LqGB1YNpwU-39" value="" style="endArrow=classic;html=1;rounded=0;entryX=0;entryY=0.5;entryDx=0;entryDy=0;exitX=1;exitY=0.5;exitDx=0;exitDy=0;strokeWidth=2;fontSize=20;" edge="1" parent="1" source="fBOXxJ-u9MTM6lL2nmct-17" target="fBOXxJ-u9MTM6lL2nmct-24">
          <mxGeometry width="50" height="50" relative="1" as="geometry">
            <mxPoint x="1030" y="800" as="sourcePoint" />
            <mxPoint x="1080" y="750" as="targetPoint" />
            <Array as="points">
              <mxPoint x="1280" y="885" />
              <mxPoint x="1280" y="755" />
            </Array>
          </mxGeometry>
        </mxCell>
        <mxCell id="OZw5-kihP6LqGB1YNpwU-18" value="" style="endArrow=classic;html=1;rounded=0;entryX=0;entryY=0.5;entryDx=0;entryDy=0;exitX=1;exitY=0.5;exitDx=0;exitDy=0;strokeWidth=2;strokeColor=light-dark(#ff0000, #ededed);fontSize=20;" edge="1" parent="1" source="fBOXxJ-u9MTM6lL2nmct-8" target="fBOXxJ-u9MTM6lL2nmct-10">
          <mxGeometry width="50" height="50" relative="1" as="geometry">
            <mxPoint x="743" y="761" as="sourcePoint" />
            <mxPoint x="770" y="690" as="targetPoint" />
            <Array as="points">
              <mxPoint x="740" y="755" />
              <mxPoint x="740" y="635" />
            </Array>
          </mxGeometry>
        </mxCell>
        <mxCell id="OZw5-kihP6LqGB1YNpwU-37" style="edgeStyle=orthogonalEdgeStyle;rounded=0;orthogonalLoop=1;jettySize=auto;html=1;exitX=1;exitY=0.5;exitDx=0;exitDy=0;entryX=0;entryY=0.5;entryDx=0;entryDy=0;strokeWidth=2;strokeColor=light-dark(#ff0000, #ededed);fontSize=20;" edge="1" parent="1" source="fBOXxJ-u9MTM6lL2nmct-17" target="fBOXxJ-u9MTM6lL2nmct-20">
          <mxGeometry relative="1" as="geometry">
            <Array as="points">
              <mxPoint x="1280" y="885" />
              <mxPoint x="1280" y="635" />
            </Array>
          </mxGeometry>
        </mxCell>
      </root>
    </mxGraphModel>
  </diagram>
  <diagram name="Copy of AoN" id="Ks92IKHRVVLs_K1rZiRc">
    <mxGraphModel dx="4591" dy="2340" grid="1" gridSize="10" guides="1" tooltips="1" connect="1" arrows="1" fold="1" page="1" pageScale="1" pageWidth="827" pageHeight="1169" math="0" shadow="0">
      <root>
        <mxCell id="jgB2li3oXypGAib3cJOK-0" />
        <mxCell id="jgB2li3oXypGAib3cJOK-1" parent="jgB2li3oXypGAib3cJOK-0" />
        <mxCell id="jgB2li3oXypGAib3cJOK-2" value="&lt;b&gt;&lt;font&gt;Tarea&lt;/font&gt;&lt;/b&gt;&lt;div&gt;&lt;b&gt;&lt;font&gt;1.1&lt;/font&gt;&lt;/b&gt;&lt;/div&gt;&lt;div&gt;&lt;font&gt;t = 16&lt;/font&gt;&lt;/div&gt;" style="rounded=1;whiteSpace=wrap;html=1;fillColor=#dae8fc;strokeColor=#6c8ebf;fontSize=20;" vertex="1" parent="jgB2li3oXypGAib3cJOK-1">
          <mxGeometry x="190" y="585" width="80" height="70" as="geometry" />
        </mxCell>
        <mxCell id="jgB2li3oXypGAib3cJOK-3" value="&lt;b&gt;&lt;font&gt;Tarea&lt;/font&gt;&lt;/b&gt;&lt;div&gt;&lt;b&gt;&lt;font&gt;1.2&lt;/font&gt;&lt;/b&gt;&lt;/div&gt;&lt;div&gt;&lt;font&gt;t = 20&lt;/font&gt;&lt;/div&gt;" style="rounded=1;whiteSpace=wrap;html=1;fillColor=#dae8fc;strokeColor=#6c8ebf;fontSize=20;" vertex="1" parent="jgB2li3oXypGAib3cJOK-1">
          <mxGeometry x="300" y="515" width="80" height="70" as="geometry" />
        </mxCell>
        <mxCell id="jgB2li3oXypGAib3cJOK-4" value="&lt;b&gt;&lt;font&gt;Tarea&lt;/font&gt;&lt;/b&gt;&lt;div&gt;&lt;b&gt;&lt;font&gt;1.3&lt;/font&gt;&lt;/b&gt;&lt;/div&gt;&lt;div&gt;&lt;font&gt;t = 14&lt;/font&gt;&lt;/div&gt;" style="rounded=1;whiteSpace=wrap;html=1;fillColor=#dae8fc;strokeColor=#6c8ebf;fontSize=20;" vertex="1" parent="jgB2li3oXypGAib3cJOK-1">
          <mxGeometry x="414" y="515" width="80" height="70" as="geometry" />
        </mxCell>
        <mxCell id="jgB2li3oXypGAib3cJOK-5" value="&lt;b&gt;&lt;font&gt;Tarea&lt;/font&gt;&lt;/b&gt;&lt;div&gt;&lt;b&gt;&lt;font&gt;1.4&lt;/font&gt;&lt;/b&gt;&lt;/div&gt;&lt;div&gt;&lt;font&gt;t = 30&lt;/font&gt;&lt;/div&gt;" style="rounded=1;whiteSpace=wrap;html=1;fillColor=#dae8fc;strokeColor=#6c8ebf;fontSize=20;" vertex="1" parent="jgB2li3oXypGAib3cJOK-1">
          <mxGeometry x="300" y="655" width="80" height="70" as="geometry" />
        </mxCell>
        <mxCell id="jgB2li3oXypGAib3cJOK-6" value="&lt;b&gt;&lt;font&gt;Tarea&lt;/font&gt;&lt;/b&gt;&lt;div&gt;&lt;b&gt;&lt;font&gt;2.1&lt;/font&gt;&lt;/b&gt;&lt;/div&gt;&lt;div&gt;&lt;font&gt;t = 40&lt;/font&gt;&lt;/div&gt;" style="rounded=1;whiteSpace=wrap;html=1;fillColor=#fff2cc;strokeColor=#d6b656;fontSize=20;" vertex="1" parent="jgB2li3oXypGAib3cJOK-1">
          <mxGeometry x="414" y="705" width="80" height="70" as="geometry" />
        </mxCell>
        <mxCell id="jgB2li3oXypGAib3cJOK-7" value="&lt;b&gt;&lt;font&gt;Tarea&lt;/font&gt;&lt;/b&gt;&lt;div&gt;&lt;span style=&quot;background-color: transparent; color: light-dark(rgb(0, 0, 0), rgb(255, 255, 255));&quot;&gt;&lt;b&gt;&lt;font&gt;2.2&lt;/font&gt;&lt;/b&gt;&lt;/span&gt;&lt;/div&gt;&lt;div&gt;&lt;span style=&quot;background-color: transparent; color: light-dark(rgb(0, 0, 0), rgb(255, 255, 255));&quot;&gt;t = 30&lt;/span&gt;&lt;/div&gt;" style="rounded=1;whiteSpace=wrap;html=1;fillColor=#fff2cc;strokeColor=#d6b656;fontSize=20;" vertex="1" parent="jgB2li3oXypGAib3cJOK-1">
          <mxGeometry x="520" y="635" width="80" height="70" as="geometry" />
        </mxCell>
        <mxCell id="jgB2li3oXypGAib3cJOK-8" value="&lt;b&gt;&lt;font&gt;Tarea&lt;/font&gt;&lt;/b&gt;&lt;div&gt;&lt;span style=&quot;background-color: transparent; color: light-dark(rgb(0, 0, 0), rgb(255, 255, 255));&quot;&gt;&lt;b&gt;&lt;font&gt;2.3&lt;/font&gt;&lt;/b&gt;&lt;/span&gt;&lt;/div&gt;&lt;div&gt;&lt;span style=&quot;background-color: transparent; color: light-dark(rgb(0, 0, 0), rgb(255, 255, 255));&quot;&gt;t = 40&lt;/span&gt;&lt;/div&gt;" style="rounded=1;whiteSpace=wrap;html=1;fillColor=#fff2cc;strokeColor=#d6b656;fontSize=20;" vertex="1" parent="jgB2li3oXypGAib3cJOK-1">
          <mxGeometry x="520" y="775" width="80" height="70" as="geometry" />
        </mxCell>
        <mxCell id="jgB2li3oXypGAib3cJOK-9" value="&lt;b&gt;&lt;font&gt;Tarea&lt;/font&gt;&lt;/b&gt;&lt;div&gt;&lt;span style=&quot;background-color: transparent; color: light-dark(rgb(0, 0, 0), rgb(255, 255, 255));&quot;&gt;&lt;b&gt;&lt;font&gt;2.4&lt;/font&gt;&lt;/b&gt;&lt;/span&gt;&lt;/div&gt;&lt;div&gt;&lt;span style=&quot;background-color: transparent; color: light-dark(rgb(0, 0, 0), rgb(255, 255, 255));&quot;&gt;t = 40&lt;/span&gt;&lt;/div&gt;" style="rounded=1;whiteSpace=wrap;html=1;fillColor=#fff2cc;strokeColor=#d6b656;fontSize=20;" vertex="1" parent="jgB2li3oXypGAib3cJOK-1">
          <mxGeometry x="650" y="635" width="80" height="70" as="geometry" />
        </mxCell>
        <mxCell id="jgB2li3oXypGAib3cJOK-10" value="&lt;b&gt;&lt;font&gt;Tarea&lt;/font&gt;&lt;/b&gt;&lt;div&gt;&lt;span style=&quot;background-color: transparent; color: light-dark(rgb(0, 0, 0), rgb(255, 255, 255));&quot;&gt;&lt;b&gt;&lt;font&gt;2.5&lt;/font&gt;&lt;/b&gt;&lt;/span&gt;&lt;/div&gt;&lt;div&gt;&lt;span style=&quot;background-color: transparent; color: light-dark(rgb(0, 0, 0), rgb(255, 255, 255));&quot;&gt;t = 40&lt;/span&gt;&lt;/div&gt;" style="rounded=1;whiteSpace=wrap;html=1;fillColor=#fff2cc;strokeColor=#d6b656;fontSize=20;" vertex="1" parent="jgB2li3oXypGAib3cJOK-1">
          <mxGeometry x="650" y="775" width="80" height="70" as="geometry" />
        </mxCell>
        <mxCell id="jgB2li3oXypGAib3cJOK-11" value="&lt;b&gt;&lt;font&gt;Tarea&lt;/font&gt;&lt;/b&gt;&lt;div&gt;&lt;b&gt;&lt;font&gt;3.1&lt;/font&gt;&lt;/b&gt;&lt;/div&gt;&lt;div&gt;&lt;font&gt;t = 40&lt;/font&gt;&lt;/div&gt;" style="rounded=1;whiteSpace=wrap;html=1;fillColor=#f8cecc;strokeColor=#b85450;fontSize=20;" vertex="1" parent="jgB2li3oXypGAib3cJOK-1">
          <mxGeometry x="780" y="515" width="80" height="70" as="geometry" />
        </mxCell>
        <mxCell id="jgB2li3oXypGAib3cJOK-12" value="&lt;b&gt;&lt;font&gt;Tarea&lt;/font&gt;&lt;/b&gt;&lt;div&gt;&lt;b&gt;&lt;font&gt;3.2&lt;/font&gt;&lt;/b&gt;&lt;/div&gt;&lt;div&gt;&lt;font&gt;t = 8&lt;/font&gt;&lt;/div&gt;" style="rounded=1;whiteSpace=wrap;html=1;fillColor=#f8cecc;strokeColor=#b85450;fontSize=20;" vertex="1" parent="jgB2li3oXypGAib3cJOK-1">
          <mxGeometry x="570" y="515" width="80" height="70" as="geometry" />
        </mxCell>
        <mxCell id="jgB2li3oXypGAib3cJOK-13" value="&lt;b&gt;&lt;font&gt;Tarea&lt;/font&gt;&lt;/b&gt;&lt;div&gt;&lt;span style=&quot;background-color: transparent; color: light-dark(rgb(0, 0, 0), rgb(255, 255, 255));&quot;&gt;&lt;b&gt;&lt;font&gt;3.3&lt;/font&gt;&lt;/b&gt;&lt;/span&gt;&lt;/div&gt;&lt;div&gt;&lt;span style=&quot;background-color: transparent; color: light-dark(rgb(0, 0, 0), rgb(255, 255, 255));&quot;&gt;t = 40&lt;/span&gt;&lt;/div&gt;" style="rounded=1;whiteSpace=wrap;html=1;fillColor=#f8cecc;strokeColor=#b85450;fontSize=20;" vertex="1" parent="jgB2li3oXypGAib3cJOK-1">
          <mxGeometry x="780" y="650" width="80" height="70" as="geometry" />
        </mxCell>
        <mxCell id="jgB2li3oXypGAib3cJOK-14" value="&lt;b&gt;&lt;font&gt;Tarea&lt;/font&gt;&lt;/b&gt;&lt;div&gt;&lt;b&gt;&lt;font&gt;3.4&lt;/font&gt;&lt;/b&gt;&lt;/div&gt;&lt;div&gt;&lt;font&gt;t = 40&lt;/font&gt;&lt;/div&gt;" style="rounded=1;whiteSpace=wrap;html=1;fillColor=#f8cecc;strokeColor=#b85450;fontSize=20;" vertex="1" parent="jgB2li3oXypGAib3cJOK-1">
          <mxGeometry x="780" y="765" width="80" height="70" as="geometry" />
        </mxCell>
        <mxCell id="jgB2li3oXypGAib3cJOK-15" value="&lt;b&gt;&lt;font&gt;Tarea&lt;/font&gt;&lt;/b&gt;&lt;div&gt;&lt;b&gt;&lt;font&gt;4.1&lt;/font&gt;&lt;/b&gt;&lt;/div&gt;&lt;div&gt;&lt;font&gt;t = 40&lt;/font&gt;&lt;/div&gt;" style="rounded=1;whiteSpace=wrap;html=1;fillColor=#e1d5e7;strokeColor=#9673a6;fontSize=20;" vertex="1" parent="jgB2li3oXypGAib3cJOK-1">
          <mxGeometry x="650" y="875" width="80" height="70" as="geometry" />
        </mxCell>
        <mxCell id="jgB2li3oXypGAib3cJOK-16" value="&lt;b&gt;&lt;font&gt;Tarea&lt;/font&gt;&lt;/b&gt;&lt;div&gt;&lt;span style=&quot;background-color: transparent; color: light-dark(rgb(0, 0, 0), rgb(255, 255, 255));&quot;&gt;&lt;b&gt;&lt;font&gt;4.2&lt;/font&gt;&lt;/b&gt;&lt;/span&gt;&lt;/div&gt;&lt;div&gt;&lt;span style=&quot;background-color: transparent; color: light-dark(rgb(0, 0, 0), rgb(255, 255, 255));&quot;&gt;t = 8&lt;/span&gt;&lt;/div&gt;" style="rounded=1;whiteSpace=wrap;html=1;fillColor=#e1d5e7;strokeColor=#9673a6;fontSize=20;" vertex="1" parent="jgB2li3oXypGAib3cJOK-1">
          <mxGeometry x="414" y="875" width="80" height="70" as="geometry" />
        </mxCell>
        <mxCell id="jgB2li3oXypGAib3cJOK-17" style="edgeStyle=orthogonalEdgeStyle;rounded=0;orthogonalLoop=1;jettySize=auto;html=1;exitX=0.5;exitY=0;exitDx=0;exitDy=0;entryX=0.5;entryY=1;entryDx=0;entryDy=0;strokeWidth=2;strokeColor=light-dark(#ff0000, #ededed);fontSize=20;" edge="1" parent="jgB2li3oXypGAib3cJOK-1" source="jgB2li3oXypGAib3cJOK-18" target="jgB2li3oXypGAib3cJOK-19">
          <mxGeometry relative="1" as="geometry">
            <Array as="points">
              <mxPoint x="920" y="865" />
              <mxPoint x="920" y="865" />
            </Array>
          </mxGeometry>
        </mxCell>
        <mxCell id="jgB2li3oXypGAib3cJOK-18" value="&lt;b&gt;&lt;font&gt;Tarea&lt;/font&gt;&lt;/b&gt;&lt;div&gt;&lt;span style=&quot;background-color: transparent; color: light-dark(rgb(0, 0, 0), rgb(255, 255, 255));&quot;&gt;&lt;b&gt;&lt;font&gt;4.3&lt;/font&gt;&lt;/b&gt;&lt;/span&gt;&lt;/div&gt;&lt;div&gt;&lt;span style=&quot;background-color: transparent; color: light-dark(rgb(0, 0, 0), rgb(255, 255, 255));&quot;&gt;t = 40&lt;/span&gt;&lt;/div&gt;" style="rounded=1;whiteSpace=wrap;html=1;fillColor=#e1d5e7;strokeColor=#9673a6;fontSize=20;" vertex="1" parent="jgB2li3oXypGAib3cJOK-1">
          <mxGeometry x="880" y="875" width="80" height="70" as="geometry" />
        </mxCell>
        <mxCell id="jgB2li3oXypGAib3cJOK-19" value="&lt;b&gt;&lt;font&gt;Tarea&lt;/font&gt;&lt;/b&gt;&lt;div&gt;&lt;b&gt;&lt;font&gt;4.4&lt;/font&gt;&lt;/b&gt;&lt;/div&gt;&lt;div&gt;&lt;font&gt;t = 40&lt;/font&gt;&lt;/div&gt;" style="rounded=1;whiteSpace=wrap;html=1;fillColor=#e1d5e7;strokeColor=#9673a6;fontSize=20;" vertex="1" parent="jgB2li3oXypGAib3cJOK-1">
          <mxGeometry x="880" y="765" width="80" height="70" as="geometry" />
        </mxCell>
        <mxCell id="jgB2li3oXypGAib3cJOK-20" style="edgeStyle=orthogonalEdgeStyle;rounded=0;orthogonalLoop=1;jettySize=auto;html=1;exitX=1;exitY=0.5;exitDx=0;exitDy=0;entryX=0.5;entryY=0;entryDx=0;entryDy=0;strokeWidth=2;fontSize=20;" edge="1" parent="jgB2li3oXypGAib3cJOK-1" source="jgB2li3oXypGAib3cJOK-21" target="jgB2li3oXypGAib3cJOK-58">
          <mxGeometry relative="1" as="geometry" />
        </mxCell>
        <mxCell id="jgB2li3oXypGAib3cJOK-21" value="&lt;b&gt;&lt;font&gt;Tarea&lt;/font&gt;&lt;/b&gt;&lt;div&gt;&lt;span style=&quot;background-color: transparent; color: light-dark(rgb(0, 0, 0), rgb(255, 255, 255));&quot;&gt;&lt;b&gt;&lt;font&gt;5.1&lt;/font&gt;&lt;/b&gt;&lt;/span&gt;&lt;/div&gt;&lt;div&gt;&lt;span style=&quot;background-color: transparent; color: light-dark(rgb(0, 0, 0), rgb(255, 255, 255));&quot;&gt;t = 5&lt;/span&gt;&lt;/div&gt;" style="rounded=1;whiteSpace=wrap;html=1;fillColor=#d5e8d4;strokeColor=#82b366;fontSize=20;" vertex="1" parent="jgB2li3oXypGAib3cJOK-1">
          <mxGeometry x="967" y="413" width="80" height="70" as="geometry" />
        </mxCell>
        <mxCell id="jgB2li3oXypGAib3cJOK-22" style="edgeStyle=orthogonalEdgeStyle;rounded=0;orthogonalLoop=1;jettySize=auto;html=1;exitX=1;exitY=0.5;exitDx=0;exitDy=0;entryX=0;entryY=0.5;entryDx=0;entryDy=0;strokeWidth=2;strokeColor=light-dark(#ff0000, #ededed);fontSize=20;" edge="1" parent="jgB2li3oXypGAib3cJOK-1" source="jgB2li3oXypGAib3cJOK-23" target="jgB2li3oXypGAib3cJOK-31">
          <mxGeometry relative="1" as="geometry" />
        </mxCell>
        <mxCell id="jgB2li3oXypGAib3cJOK-23" value="&lt;b&gt;&lt;font&gt;Tarea&lt;/font&gt;&lt;/b&gt;&lt;div&gt;&lt;b&gt;&lt;font&gt;5.2&lt;/font&gt;&lt;/b&gt;&lt;/div&gt;&lt;div&gt;&lt;span style=&quot;background-color: transparent; color: light-dark(rgb(0, 0, 0), rgb(255, 255, 255));&quot;&gt;t = 15&lt;/span&gt;&lt;/div&gt;" style="rounded=1;whiteSpace=wrap;html=1;fillColor=#d5e8d4;strokeColor=#82b366;fontSize=20;" vertex="1" parent="jgB2li3oXypGAib3cJOK-1">
          <mxGeometry x="1182" y="535" width="80" height="70" as="geometry" />
        </mxCell>
        <mxCell id="jgB2li3oXypGAib3cJOK-24" style="edgeStyle=orthogonalEdgeStyle;rounded=0;orthogonalLoop=1;jettySize=auto;html=1;exitX=1;exitY=0.5;exitDx=0;exitDy=0;entryX=0;entryY=0.5;entryDx=0;entryDy=0;strokeWidth=2;strokeColor=light-dark(#ff0000, #ededed);fontSize=20;" edge="1" parent="jgB2li3oXypGAib3cJOK-1" source="jgB2li3oXypGAib3cJOK-25" target="jgB2li3oXypGAib3cJOK-27">
          <mxGeometry relative="1" as="geometry" />
        </mxCell>
        <mxCell id="jgB2li3oXypGAib3cJOK-25" value="&lt;b&gt;&lt;font&gt;Tarea&lt;br&gt;&lt;/font&gt;&lt;/b&gt;&lt;div&gt;&lt;b style=&quot;background-color: transparent; color: light-dark(rgb(0, 0, 0), rgb(255, 255, 255));&quot;&gt;&lt;font&gt;5.3&amp;nbsp;&lt;/font&gt;&lt;/b&gt;&lt;/div&gt;&lt;div&gt;&lt;span style=&quot;background-color: transparent; color: light-dark(rgb(0, 0, 0), rgb(255, 255, 255));&quot;&gt;t = 20&lt;/span&gt;&lt;/div&gt;" style="rounded=1;whiteSpace=wrap;html=1;fillColor=#d5e8d4;strokeColor=#82b366;fontSize=20;" vertex="1" parent="jgB2li3oXypGAib3cJOK-1">
          <mxGeometry x="967" y="535" width="80" height="70" as="geometry" />
        </mxCell>
        <mxCell id="jgB2li3oXypGAib3cJOK-26" style="edgeStyle=orthogonalEdgeStyle;rounded=0;orthogonalLoop=1;jettySize=auto;html=1;exitX=1;exitY=0.5;exitDx=0;exitDy=0;entryX=0;entryY=0.5;entryDx=0;entryDy=0;strokeWidth=2;strokeColor=light-dark(#ff0000, #ededed);fontSize=20;" edge="1" parent="jgB2li3oXypGAib3cJOK-1" source="jgB2li3oXypGAib3cJOK-27" target="jgB2li3oXypGAib3cJOK-23">
          <mxGeometry relative="1" as="geometry" />
        </mxCell>
        <mxCell id="jgB2li3oXypGAib3cJOK-27" value="&lt;b&gt;&lt;font&gt;Tarea&lt;br&gt;&lt;/font&gt;&lt;/b&gt;&lt;div&gt;&lt;b style=&quot;background-color: transparent; color: light-dark(rgb(0, 0, 0), rgb(255, 255, 255));&quot;&gt;&lt;font&gt;5.4&amp;nbsp;&lt;/font&gt;&lt;/b&gt;&lt;/div&gt;&lt;div&gt;&lt;span style=&quot;background-color: transparent; color: light-dark(rgb(0, 0, 0), rgb(255, 255, 255));&quot;&gt;t = 40&lt;/span&gt;&lt;/div&gt;" style="rounded=1;whiteSpace=wrap;html=1;fillColor=#d5e8d4;strokeColor=#82b366;fontSize=20;" vertex="1" parent="jgB2li3oXypGAib3cJOK-1">
          <mxGeometry x="1075" y="535" width="80" height="70" as="geometry" />
        </mxCell>
        <mxCell id="jgB2li3oXypGAib3cJOK-28" style="rounded=0;orthogonalLoop=1;jettySize=auto;html=1;exitX=1;exitY=0.5;exitDx=0;exitDy=0;entryX=0;entryY=0.5;entryDx=0;entryDy=0;strokeWidth=2;strokeColor=light-dark(#ff0000, #ededed);fontSize=20;" edge="1" parent="jgB2li3oXypGAib3cJOK-1" source="jgB2li3oXypGAib3cJOK-29" target="jgB2li3oXypGAib3cJOK-58">
          <mxGeometry relative="1" as="geometry" />
        </mxCell>
        <mxCell id="jgB2li3oXypGAib3cJOK-29" value="&lt;b&gt;&lt;font&gt;Tarea&lt;/font&gt;&lt;/b&gt;&lt;div&gt;&lt;b&gt;&lt;font&gt;6.1&lt;/font&gt;&lt;/b&gt;&lt;/div&gt;&lt;div&gt;&lt;font&gt;t = 30&lt;/font&gt;&lt;/div&gt;" style="rounded=1;whiteSpace=wrap;html=1;fillColor=#fad7ac;strokeColor=#b46504;fontSize=20;" vertex="1" parent="jgB2li3oXypGAib3cJOK-1">
          <mxGeometry x="1290" y="655" width="80" height="70" as="geometry" />
        </mxCell>
        <mxCell id="jgB2li3oXypGAib3cJOK-30" style="edgeStyle=orthogonalEdgeStyle;rounded=0;orthogonalLoop=1;jettySize=auto;html=1;exitX=0.5;exitY=1;exitDx=0;exitDy=0;strokeWidth=2;strokeColor=light-dark(#ff0000, #ededed);fontSize=20;entryX=0.5;entryY=0;entryDx=0;entryDy=0;" edge="1" parent="jgB2li3oXypGAib3cJOK-1" source="jgB2li3oXypGAib3cJOK-31" target="jgB2li3oXypGAib3cJOK-29">
          <mxGeometry relative="1" as="geometry">
            <mxPoint x="1330" y="635" as="targetPoint" />
          </mxGeometry>
        </mxCell>
        <mxCell id="jgB2li3oXypGAib3cJOK-31" value="&lt;b&gt;&lt;font&gt;Tarea&lt;br&gt;&lt;/font&gt;&lt;/b&gt;&lt;div&gt;&lt;b style=&quot;background-color: transparent; color: light-dark(rgb(0, 0, 0), rgb(255, 255, 255));&quot;&gt;&lt;font&gt;5.5&amp;nbsp;&lt;/font&gt;&lt;/b&gt;&lt;/div&gt;&lt;div&gt;&lt;span style=&quot;background-color: transparent; color: light-dark(rgb(0, 0, 0), rgb(255, 255, 255));&quot;&gt;t = 30&lt;/span&gt;&lt;/div&gt;" style="rounded=1;whiteSpace=wrap;html=1;fillColor=#d5e8d4;strokeColor=#82b366;fontSize=20;" vertex="1" parent="jgB2li3oXypGAib3cJOK-1">
          <mxGeometry x="1290" y="535" width="80" height="70" as="geometry" />
        </mxCell>
        <mxCell id="jgB2li3oXypGAib3cJOK-32" style="edgeStyle=orthogonalEdgeStyle;rounded=0;orthogonalLoop=1;jettySize=auto;html=1;exitX=1;exitY=0.5;exitDx=0;exitDy=0;entryX=0;entryY=0.5;entryDx=0;entryDy=0;strokeWidth=2;fontSize=20;" edge="1" parent="jgB2li3oXypGAib3cJOK-1" source="jgB2li3oXypGAib3cJOK-33" target="jgB2li3oXypGAib3cJOK-35">
          <mxGeometry relative="1" as="geometry" />
        </mxCell>
        <mxCell id="jgB2li3oXypGAib3cJOK-33" value="&lt;b&gt;&lt;font&gt;Tarea&lt;br&gt;&lt;/font&gt;&lt;/b&gt;&lt;div&gt;&lt;b style=&quot;background-color: transparent; color: light-dark(rgb(0, 0, 0), rgb(255, 255, 255));&quot;&gt;&lt;font&gt;5.6&amp;nbsp;&lt;/font&gt;&lt;/b&gt;&lt;/div&gt;&lt;div&gt;&lt;span style=&quot;background-color: transparent; color: light-dark(rgb(0, 0, 0), rgb(255, 255, 255));&quot;&gt;t = 20&lt;/span&gt;&lt;/div&gt;" style="rounded=1;whiteSpace=wrap;html=1;fillColor=#d5e8d4;strokeColor=#82b366;fontSize=20;" vertex="1" parent="jgB2li3oXypGAib3cJOK-1">
          <mxGeometry x="967" y="655" width="80" height="70" as="geometry" />
        </mxCell>
        <mxCell id="jgB2li3oXypGAib3cJOK-34" style="edgeStyle=orthogonalEdgeStyle;rounded=0;orthogonalLoop=1;jettySize=auto;html=1;entryX=0.526;entryY=0.98;entryDx=0;entryDy=0;strokeWidth=2;fontSize=20;exitX=0.457;exitY=1.003;exitDx=0;exitDy=0;exitPerimeter=0;entryPerimeter=0;" edge="1" parent="jgB2li3oXypGAib3cJOK-1" source="jgB2li3oXypGAib3cJOK-35" target="jgB2li3oXypGAib3cJOK-58">
          <mxGeometry relative="1" as="geometry">
            <mxPoint x="1111" y="729" as="sourcePoint" />
            <Array as="points">
              <mxPoint x="1112" y="765" />
              <mxPoint x="1468" y="765" />
            </Array>
          </mxGeometry>
        </mxCell>
        <mxCell id="jgB2li3oXypGAib3cJOK-35" value="&lt;b&gt;&lt;font&gt;Tarea&lt;br&gt;&lt;/font&gt;&lt;/b&gt;&lt;div&gt;&lt;b style=&quot;background-color: transparent; color: light-dark(rgb(0, 0, 0), rgb(255, 255, 255));&quot;&gt;&lt;font&gt;5.7&amp;nbsp;&lt;/font&gt;&lt;/b&gt;&lt;/div&gt;&lt;div&gt;&lt;span style=&quot;background-color: transparent; color: light-dark(rgb(0, 0, 0), rgb(255, 255, 255));&quot;&gt;t = 14&lt;/span&gt;&lt;/div&gt;" style="rounded=1;whiteSpace=wrap;html=1;fillColor=#d5e8d4;strokeColor=#82b366;fontSize=20;" vertex="1" parent="jgB2li3oXypGAib3cJOK-1">
          <mxGeometry x="1075" y="655" width="80" height="70" as="geometry" />
        </mxCell>
        <mxCell id="jgB2li3oXypGAib3cJOK-36" value="&lt;b&gt;&lt;font&gt;Inicio&lt;/font&gt;&lt;/b&gt;&lt;div&gt;&lt;font&gt;24/06/2025&lt;/font&gt;&lt;/div&gt;" style="rounded=1;whiteSpace=wrap;html=1;fillColor=#bac8d3;strokeColor=#23445d;fontSize=20;" vertex="1" parent="jgB2li3oXypGAib3cJOK-1">
          <mxGeometry x="30" y="590" width="130" height="60" as="geometry" />
        </mxCell>
        <mxCell id="jgB2li3oXypGAib3cJOK-37" value="" style="endArrow=classic;html=1;rounded=0;exitX=1;exitY=0.5;exitDx=0;exitDy=0;entryX=0;entryY=0.5;entryDx=0;entryDy=0;strokeWidth=2;strokeColor=light-dark(#ff0000, #ededed);fontSize=20;" edge="1" parent="jgB2li3oXypGAib3cJOK-1" source="jgB2li3oXypGAib3cJOK-36" target="jgB2li3oXypGAib3cJOK-2">
          <mxGeometry width="50" height="50" relative="1" as="geometry">
            <mxPoint x="390" y="505" as="sourcePoint" />
            <mxPoint x="440" y="455" as="targetPoint" />
          </mxGeometry>
        </mxCell>
        <mxCell id="jgB2li3oXypGAib3cJOK-38" value="" style="endArrow=classic;html=1;rounded=0;entryX=0;entryY=0.429;entryDx=0;entryDy=0;entryPerimeter=0;exitX=1;exitY=0.5;exitDx=0;exitDy=0;strokeWidth=2;fontSize=20;" edge="1" parent="jgB2li3oXypGAib3cJOK-1" source="jgB2li3oXypGAib3cJOK-2" target="jgB2li3oXypGAib3cJOK-3">
          <mxGeometry width="50" height="50" relative="1" as="geometry">
            <mxPoint x="330" y="655" as="sourcePoint" />
            <mxPoint x="380" y="605" as="targetPoint" />
            <Array as="points">
              <mxPoint x="280" y="620" />
              <mxPoint x="280" y="545" />
            </Array>
          </mxGeometry>
        </mxCell>
        <mxCell id="jgB2li3oXypGAib3cJOK-39" value="" style="endArrow=classic;html=1;rounded=0;entryX=0;entryY=0.5;entryDx=0;entryDy=0;exitX=0.992;exitY=0.516;exitDx=0;exitDy=0;strokeWidth=2;exitPerimeter=0;fontSize=20;" edge="1" parent="jgB2li3oXypGAib3cJOK-1" source="jgB2li3oXypGAib3cJOK-6" target="jgB2li3oXypGAib3cJOK-7">
          <mxGeometry width="50" height="50" relative="1" as="geometry">
            <mxPoint x="490" y="740" as="sourcePoint" />
            <mxPoint x="520" y="665" as="targetPoint" />
            <Array as="points">
              <mxPoint x="500" y="741" />
              <mxPoint x="500" y="670" />
            </Array>
          </mxGeometry>
        </mxCell>
        <mxCell id="jgB2li3oXypGAib3cJOK-40" value="" style="endArrow=classic;html=1;rounded=0;exitX=1;exitY=0.5;exitDx=0;exitDy=0;entryX=0;entryY=0.5;entryDx=0;entryDy=0;strokeWidth=2;fontSize=20;" edge="1" parent="jgB2li3oXypGAib3cJOK-1" source="jgB2li3oXypGAib3cJOK-3" target="jgB2li3oXypGAib3cJOK-4">
          <mxGeometry width="50" height="50" relative="1" as="geometry">
            <mxPoint x="384" y="549.73" as="sourcePoint" />
            <mxPoint x="414" y="549.73" as="targetPoint" />
          </mxGeometry>
        </mxCell>
        <mxCell id="jgB2li3oXypGAib3cJOK-41" value="" style="endArrow=classic;html=1;rounded=0;entryX=0;entryY=0.5;entryDx=0;entryDy=0;exitX=1;exitY=0.5;exitDx=0;exitDy=0;strokeWidth=2;strokeColor=light-dark(#ff0000, #ededed);fontSize=20;" edge="1" parent="jgB2li3oXypGAib3cJOK-1" source="jgB2li3oXypGAib3cJOK-2" target="jgB2li3oXypGAib3cJOK-5">
          <mxGeometry width="50" height="50" relative="1" as="geometry">
            <mxPoint x="310" y="670" as="sourcePoint" />
            <mxPoint x="340" y="595" as="targetPoint" />
            <Array as="points">
              <mxPoint x="280" y="620" />
              <mxPoint x="280" y="690" />
            </Array>
          </mxGeometry>
        </mxCell>
        <mxCell id="jgB2li3oXypGAib3cJOK-42" value="" style="endArrow=classic;html=1;rounded=0;entryX=0;entryY=0.5;entryDx=0;entryDy=0;exitX=1;exitY=0.5;exitDx=0;exitDy=0;strokeWidth=2;strokeColor=light-dark(#ff0000, #ededed);fontSize=20;" edge="1" parent="jgB2li3oXypGAib3cJOK-1" source="jgB2li3oXypGAib3cJOK-5" target="jgB2li3oXypGAib3cJOK-6">
          <mxGeometry width="50" height="50" relative="1" as="geometry">
            <mxPoint x="384" y="685" as="sourcePoint" />
            <mxPoint x="414" y="755" as="targetPoint" />
            <Array as="points">
              <mxPoint x="394" y="690" />
              <mxPoint x="394" y="740" />
            </Array>
          </mxGeometry>
        </mxCell>
        <mxCell id="jgB2li3oXypGAib3cJOK-43" value="" style="endArrow=classic;html=1;rounded=0;entryX=0;entryY=0.5;entryDx=0;entryDy=0;exitX=1.004;exitY=0.516;exitDx=0;exitDy=0;strokeWidth=2;exitPerimeter=0;strokeColor=light-dark(#ff0000, #ededed);fontSize=20;" edge="1" parent="jgB2li3oXypGAib3cJOK-1" source="jgB2li3oXypGAib3cJOK-6" target="jgB2li3oXypGAib3cJOK-8">
          <mxGeometry width="50" height="50" relative="1" as="geometry">
            <mxPoint x="500" y="745" as="sourcePoint" />
            <mxPoint x="530" y="815" as="targetPoint" />
            <Array as="points">
              <mxPoint x="500" y="741" />
              <mxPoint x="500" y="785" />
              <mxPoint x="500" y="810" />
            </Array>
          </mxGeometry>
        </mxCell>
        <mxCell id="jgB2li3oXypGAib3cJOK-44" value="" style="endArrow=classic;html=1;rounded=0;exitX=1;exitY=0.5;exitDx=0;exitDy=0;entryX=0;entryY=0.5;entryDx=0;entryDy=0;strokeWidth=2;fontSize=20;" edge="1" parent="jgB2li3oXypGAib3cJOK-1" source="jgB2li3oXypGAib3cJOK-7" target="jgB2li3oXypGAib3cJOK-9">
          <mxGeometry width="50" height="50" relative="1" as="geometry">
            <mxPoint x="620" y="615" as="sourcePoint" />
            <mxPoint x="670" y="565" as="targetPoint" />
          </mxGeometry>
        </mxCell>
        <mxCell id="jgB2li3oXypGAib3cJOK-45" value="" style="endArrow=classic;html=1;rounded=0;strokeWidth=2;fontSize=20;" edge="1" parent="jgB2li3oXypGAib3cJOK-1" source="jgB2li3oXypGAib3cJOK-8" target="jgB2li3oXypGAib3cJOK-10">
          <mxGeometry width="50" height="50" relative="1" as="geometry">
            <mxPoint x="600" y="809.64" as="sourcePoint" />
            <mxPoint x="650" y="809.64" as="targetPoint" />
          </mxGeometry>
        </mxCell>
        <mxCell id="jgB2li3oXypGAib3cJOK-46" value="" style="endArrow=classic;html=1;rounded=0;entryX=0;entryY=0.5;entryDx=0;entryDy=0;exitX=1;exitY=0.5;exitDx=0;exitDy=0;strokeWidth=2;strokeColor=light-dark(#ff0000, #ededed);fontSize=20;" edge="1" parent="jgB2li3oXypGAib3cJOK-1" source="jgB2li3oXypGAib3cJOK-8" target="jgB2li3oXypGAib3cJOK-9">
          <mxGeometry width="50" height="50" relative="1" as="geometry">
            <mxPoint x="340" y="785" as="sourcePoint" />
            <mxPoint x="390" y="735" as="targetPoint" />
          </mxGeometry>
        </mxCell>
        <mxCell id="jgB2li3oXypGAib3cJOK-47" value="" style="endArrow=classic;html=1;rounded=0;entryX=0;entryY=0.5;entryDx=0;entryDy=0;exitX=1;exitY=0.5;exitDx=0;exitDy=0;strokeWidth=2;fontSize=20;" edge="1" parent="jgB2li3oXypGAib3cJOK-1" source="jgB2li3oXypGAib3cJOK-7" target="jgB2li3oXypGAib3cJOK-10">
          <mxGeometry width="50" height="50" relative="1" as="geometry">
            <mxPoint x="730" y="845" as="sourcePoint" />
            <mxPoint x="780" y="705" as="targetPoint" />
          </mxGeometry>
        </mxCell>
        <mxCell id="jgB2li3oXypGAib3cJOK-48" value="" style="endArrow=classic;html=1;rounded=0;entryX=0;entryY=0.5;entryDx=0;entryDy=0;strokeWidth=2;exitX=1;exitY=0.5;exitDx=0;exitDy=0;fontSize=20;" edge="1" parent="jgB2li3oXypGAib3cJOK-1" source="jgB2li3oXypGAib3cJOK-4" target="jgB2li3oXypGAib3cJOK-12">
          <mxGeometry width="50" height="50" relative="1" as="geometry">
            <mxPoint x="490" y="550" as="sourcePoint" />
            <mxPoint x="454" y="555" as="targetPoint" />
          </mxGeometry>
        </mxCell>
        <mxCell id="jgB2li3oXypGAib3cJOK-49" value="" style="endArrow=classic;html=1;rounded=0;entryX=0;entryY=0.5;entryDx=0;entryDy=0;strokeWidth=2;fontSize=20;" edge="1" parent="jgB2li3oXypGAib3cJOK-1" source="jgB2li3oXypGAib3cJOK-12" target="jgB2li3oXypGAib3cJOK-11">
          <mxGeometry width="50" height="50" relative="1" as="geometry">
            <mxPoint x="652" y="549.63" as="sourcePoint" />
            <mxPoint x="728" y="549.63" as="targetPoint" />
          </mxGeometry>
        </mxCell>
        <mxCell id="jgB2li3oXypGAib3cJOK-50" value="" style="endArrow=classic;html=1;rounded=0;entryX=0.5;entryY=0;entryDx=0;entryDy=0;exitX=0.5;exitY=1;exitDx=0;exitDy=0;strokeWidth=2;strokeColor=light-dark(#ff0000, #ededed);fontSize=20;" edge="1" parent="jgB2li3oXypGAib3cJOK-1" source="jgB2li3oXypGAib3cJOK-11" target="jgB2li3oXypGAib3cJOK-13">
          <mxGeometry width="50" height="50" relative="1" as="geometry">
            <mxPoint x="880" y="545" as="sourcePoint" />
            <mxPoint x="910" y="615" as="targetPoint" />
            <Array as="points">
              <mxPoint x="820" y="605" />
              <mxPoint x="820" y="625" />
            </Array>
          </mxGeometry>
        </mxCell>
        <mxCell id="jgB2li3oXypGAib3cJOK-51" value="" style="endArrow=classic;html=1;rounded=0;entryX=0;entryY=0.5;entryDx=0;entryDy=0;exitX=1;exitY=0.5;exitDx=0;exitDy=0;strokeWidth=2;fontSize=20;" edge="1" parent="jgB2li3oXypGAib3cJOK-1" source="jgB2li3oXypGAib3cJOK-10" target="jgB2li3oXypGAib3cJOK-11">
          <mxGeometry width="50" height="50" relative="1" as="geometry">
            <mxPoint x="750" y="775" as="sourcePoint" />
            <mxPoint x="810" y="655" as="targetPoint" />
            <Array as="points">
              <mxPoint x="750" y="810" />
              <mxPoint x="750" y="550" />
            </Array>
          </mxGeometry>
        </mxCell>
        <mxCell id="jgB2li3oXypGAib3cJOK-52" value="" style="endArrow=classic;html=1;rounded=0;entryX=0.5;entryY=0;entryDx=0;entryDy=0;exitX=0.5;exitY=1;exitDx=0;exitDy=0;strokeWidth=2;strokeColor=light-dark(#ff0000, #ededed);fontSize=20;" edge="1" parent="jgB2li3oXypGAib3cJOK-1" source="jgB2li3oXypGAib3cJOK-13" target="jgB2li3oXypGAib3cJOK-14">
          <mxGeometry width="50" height="50" relative="1" as="geometry">
            <mxPoint x="860" y="645" as="sourcePoint" />
            <mxPoint x="910" y="595" as="targetPoint" />
          </mxGeometry>
        </mxCell>
        <mxCell id="jgB2li3oXypGAib3cJOK-53" value="" style="endArrow=classic;html=1;rounded=0;entryX=0;entryY=0.5;entryDx=0;entryDy=0;exitX=1;exitY=0.5;exitDx=0;exitDy=0;strokeWidth=2;fontSize=20;" edge="1" parent="jgB2li3oXypGAib3cJOK-1" source="jgB2li3oXypGAib3cJOK-2" target="jgB2li3oXypGAib3cJOK-21">
          <mxGeometry width="50" height="50" relative="1" as="geometry">
            <mxPoint x="280" y="640" as="sourcePoint" />
            <mxPoint x="310" y="565" as="targetPoint" />
            <Array as="points">
              <mxPoint x="280" y="620" />
              <mxPoint x="280" y="448" />
            </Array>
          </mxGeometry>
        </mxCell>
        <mxCell id="jgB2li3oXypGAib3cJOK-54" value="" style="endArrow=classic;html=1;rounded=0;entryX=0;entryY=0.5;entryDx=0;entryDy=0;exitX=1;exitY=0.5;exitDx=0;exitDy=0;strokeWidth=2;fontSize=20;" edge="1" parent="jgB2li3oXypGAib3cJOK-1" source="jgB2li3oXypGAib3cJOK-2" target="jgB2li3oXypGAib3cJOK-16">
          <mxGeometry width="50" height="50" relative="1" as="geometry">
            <mxPoint x="270" y="725" as="sourcePoint" />
            <mxPoint x="300" y="795" as="targetPoint" />
            <Array as="points">
              <mxPoint x="280" y="620" />
              <mxPoint x="280" y="910" />
            </Array>
          </mxGeometry>
        </mxCell>
        <mxCell id="jgB2li3oXypGAib3cJOK-55" value="" style="endArrow=classic;html=1;rounded=0;entryX=0;entryY=0.5;entryDx=0;entryDy=0;strokeWidth=2;exitX=1;exitY=0.5;exitDx=0;exitDy=0;fontSize=20;" edge="1" parent="jgB2li3oXypGAib3cJOK-1" target="jgB2li3oXypGAib3cJOK-15">
          <mxGeometry width="50" height="50" relative="1" as="geometry">
            <mxPoint x="494" y="909.62" as="sourcePoint" />
            <mxPoint x="570" y="909.62" as="targetPoint" />
          </mxGeometry>
        </mxCell>
        <mxCell id="jgB2li3oXypGAib3cJOK-56" value="" style="endArrow=classic;html=1;rounded=0;entryX=0;entryY=0.5;entryDx=0;entryDy=0;strokeWidth=2;fontSize=20;" edge="1" parent="jgB2li3oXypGAib3cJOK-1" target="jgB2li3oXypGAib3cJOK-18">
          <mxGeometry width="50" height="50" relative="1" as="geometry">
            <mxPoint x="730" y="910" as="sourcePoint" />
            <mxPoint x="888" y="910" as="targetPoint" />
          </mxGeometry>
        </mxCell>
        <mxCell id="jgB2li3oXypGAib3cJOK-57" value="" style="endArrow=classic;html=1;rounded=0;entryX=0;entryY=0.5;entryDx=0;entryDy=0;strokeWidth=2;exitX=0.5;exitY=1;exitDx=0;exitDy=0;strokeColor=light-dark(#ff0000, #ededed);fontSize=20;" edge="1" parent="jgB2li3oXypGAib3cJOK-1" source="jgB2li3oXypGAib3cJOK-14" target="jgB2li3oXypGAib3cJOK-18">
          <mxGeometry width="50" height="50" relative="1" as="geometry">
            <mxPoint x="1060" y="625" as="sourcePoint" />
            <mxPoint x="1116" y="754" as="targetPoint" />
            <Array as="points">
              <mxPoint x="820" y="910" />
            </Array>
          </mxGeometry>
        </mxCell>
        <mxCell id="jgB2li3oXypGAib3cJOK-58" value="&lt;div&gt;&lt;font&gt;&lt;b&gt;Fin&lt;/b&gt;&lt;/font&gt;&lt;/div&gt;&lt;div&gt;&lt;font&gt;04/2026&lt;/font&gt;&lt;/div&gt;" style="rounded=1;whiteSpace=wrap;html=1;fillColor=#bac8d3;strokeColor=#23445d;fontSize=20;" vertex="1" parent="jgB2li3oXypGAib3cJOK-1">
          <mxGeometry x="1400" y="660" width="130" height="60" as="geometry" />
        </mxCell>
        <mxCell id="jgB2li3oXypGAib3cJOK-59" value="" style="endArrow=classic;html=1;rounded=0;entryX=0;entryY=0.5;entryDx=0;entryDy=0;exitX=0.5;exitY=0;exitDx=0;exitDy=0;strokeWidth=2;fontSize=20;" edge="1" parent="jgB2li3oXypGAib3cJOK-1" source="jgB2li3oXypGAib3cJOK-19" target="jgB2li3oXypGAib3cJOK-33">
          <mxGeometry width="50" height="50" relative="1" as="geometry">
            <mxPoint x="1030" y="715" as="sourcePoint" />
            <mxPoint x="1080" y="665" as="targetPoint" />
            <Array as="points">
              <mxPoint x="920" y="690" />
            </Array>
          </mxGeometry>
        </mxCell>
        <mxCell id="jgB2li3oXypGAib3cJOK-60" value="" style="endArrow=classic;html=1;rounded=0;entryX=0;entryY=0.5;entryDx=0;entryDy=0;exitX=1;exitY=0.5;exitDx=0;exitDy=0;strokeWidth=2;strokeColor=light-dark(#ff0000, #ededed);fontSize=20;" edge="1" parent="jgB2li3oXypGAib3cJOK-1" source="jgB2li3oXypGAib3cJOK-9" target="jgB2li3oXypGAib3cJOK-11">
          <mxGeometry width="50" height="50" relative="1" as="geometry">
            <mxPoint x="743" y="676" as="sourcePoint" />
            <mxPoint x="770" y="605" as="targetPoint" />
            <Array as="points">
              <mxPoint x="750" y="670" />
              <mxPoint x="750" y="550" />
            </Array>
          </mxGeometry>
        </mxCell>
        <mxCell id="jgB2li3oXypGAib3cJOK-61" style="edgeStyle=orthogonalEdgeStyle;rounded=0;orthogonalLoop=1;jettySize=auto;html=1;entryX=0;entryY=0.5;entryDx=0;entryDy=0;strokeWidth=2;strokeColor=light-dark(#ff0000, #ededed);fontSize=20;" edge="1" parent="jgB2li3oXypGAib3cJOK-1" target="jgB2li3oXypGAib3cJOK-25">
          <mxGeometry relative="1" as="geometry">
            <mxPoint x="920.0256410256411" y="757.5" as="sourcePoint" />
            <mxPoint x="967" y="562.5" as="targetPoint" />
            <Array as="points">
              <mxPoint x="920" y="570" />
            </Array>
          </mxGeometry>
        </mxCell>
        <mxCell id="tbTvtIE0d7QUZbWW2vMO-0" value="1. Configuración inicial y planificación." style="swimlane;fontStyle=0;childLayout=stackLayout;horizontal=1;startSize=30;horizontalStack=0;resizeParent=1;resizeParentMax=0;resizeLast=0;collapsible=1;marginBottom=0;whiteSpace=wrap;html=1;fontSize=25;fillColor=#dae8fc;strokeColor=#6c8ebf;align=left;" vertex="1" parent="jgB2li3oXypGAib3cJOK-1">
          <mxGeometry x="349" y="1050" width="1044" height="190" as="geometry">
            <mxRectangle x="29" y="-940" width="380" height="40" as="alternateBounds" />
          </mxGeometry>
        </mxCell>
        <mxCell id="tbTvtIE0d7QUZbWW2vMO-1" value="1.1 Definición del problema, requerimientos y categorías de eventos." style="text;strokeColor=none;fillColor=none;align=left;verticalAlign=middle;spacingLeft=4;spacingRight=4;overflow=hidden;points=[[0,0.5],[1,0.5]];portConstraint=eastwest;rotatable=0;whiteSpace=wrap;html=1;fontSize=25;" vertex="1" parent="tbTvtIE0d7QUZbWW2vMO-0">
          <mxGeometry y="30" width="1044" height="40" as="geometry" />
        </mxCell>
        <mxCell id="tbTvtIE0d7QUZbWW2vMO-2" value="1.2. Creación del repositorio en GitHub, y de los entornos UV y MLflow.1." style="text;strokeColor=none;fillColor=none;align=left;verticalAlign=middle;spacingLeft=4;spacingRight=4;overflow=hidden;points=[[0,0.5],[1,0.5]];portConstraint=eastwest;rotatable=0;whiteSpace=wrap;html=1;fontSize=25;" vertex="1" parent="tbTvtIE0d7QUZbWW2vMO-0">
          <mxGeometry y="70" width="1044" height="40" as="geometry" />
        </mxCell>
        <mxCell id="tbTvtIE0d7QUZbWW2vMO-3" value="1.3. Configuración de control de versiones con DVC/Git LFS." style="text;strokeColor=none;fillColor=none;align=left;verticalAlign=middle;spacingLeft=4;spacingRight=4;overflow=hidden;points=[[0,0.5],[1,0.5]];portConstraint=eastwest;rotatable=0;whiteSpace=wrap;html=1;fontSize=25;" vertex="1" parent="tbTvtIE0d7QUZbWW2vMO-0">
          <mxGeometry y="110" width="1044" height="40" as="geometry" />
        </mxCell>
        <mxCell id="tbTvtIE0d7QUZbWW2vMO-4" value="1.4. Selección y prueba inicial de una herramienta de etiquetado (CVAT/LabelStudio)." style="text;strokeColor=none;fillColor=none;align=left;verticalAlign=middle;spacingLeft=4;spacingRight=4;overflow=hidden;points=[[0,0.5],[1,0.5]];portConstraint=eastwest;rotatable=0;whiteSpace=wrap;html=1;fontSize=25;" vertex="1" parent="tbTvtIE0d7QUZbWW2vMO-0">
          <mxGeometry y="150" width="1044" height="40" as="geometry" />
        </mxCell>
        <mxCell id="tbTvtIE0d7QUZbWW2vMO-5" value="2. Preparación de datos y etiquetado." style="swimlane;fontStyle=0;childLayout=stackLayout;horizontal=1;startSize=30;horizontalStack=0;resizeParent=1;resizeParentMax=0;resizeLast=0;collapsible=1;marginBottom=0;whiteSpace=wrap;html=1;fontSize=25;align=left;fillColor=#fff2cc;strokeColor=#d6b656;" vertex="1" parent="jgB2li3oXypGAib3cJOK-1">
          <mxGeometry x="349" y="1240" width="1044" height="230" as="geometry" />
        </mxCell>
        <mxCell id="tbTvtIE0d7QUZbWW2vMO-6" value="&lt;span style=&quot;font-family: Arial;&quot; data-sheets-root=&quot;1&quot;&gt;2.1. Análisis de videos, definición de eventos, preparación del dataset.&lt;/span&gt;" style="text;strokeColor=none;fillColor=none;align=left;verticalAlign=middle;spacingLeft=4;spacingRight=4;overflow=hidden;points=[[0,0.5],[1,0.5]];portConstraint=eastwest;rotatable=0;whiteSpace=wrap;html=1;fontSize=25;" vertex="1" parent="tbTvtIE0d7QUZbWW2vMO-5">
          <mxGeometry y="30" width="1044" height="40" as="geometry" />
        </mxCell>
        <mxCell id="tbTvtIE0d7QUZbWW2vMO-7" value="&lt;span data-sheets-root=&quot;1&quot; style=&quot;font-family: Arial; font-style: normal;&quot;&gt;2.2. Definición del esquema de anotación (etiquetado).&lt;/span&gt;" style="text;strokeColor=none;fillColor=none;align=left;verticalAlign=middle;spacingLeft=4;spacingRight=4;overflow=hidden;points=[[0,0.5],[1,0.5]];portConstraint=eastwest;rotatable=0;whiteSpace=wrap;html=1;fontSize=25;" vertex="1" parent="tbTvtIE0d7QUZbWW2vMO-5">
          <mxGeometry y="70" width="1044" height="40" as="geometry" />
        </mxCell>
        <mxCell id="tbTvtIE0d7QUZbWW2vMO-8" value="&lt;span data-sheets-root=&quot;1&quot; style=&quot;font-family: Arial; font-style: normal;&quot;&gt;2.3. Extracción de frames y sincronización de timestamps.&lt;/span&gt;" style="text;strokeColor=none;fillColor=none;align=left;verticalAlign=middle;spacingLeft=4;spacingRight=4;overflow=hidden;points=[[0,0.5],[1,0.5]];portConstraint=eastwest;rotatable=0;whiteSpace=wrap;html=1;fontSize=25;" vertex="1" parent="tbTvtIE0d7QUZbWW2vMO-5">
          <mxGeometry y="110" width="1044" height="40" as="geometry" />
        </mxCell>
        <mxCell id="tbTvtIE0d7QUZbWW2vMO-9" value="&lt;span style=&quot;font-family: Arial;&quot; data-sheets-root=&quot;1&quot;&gt;2.4. Etiquetado del quirófano 1.&lt;/span&gt;" style="text;strokeColor=none;fillColor=none;align=left;verticalAlign=middle;spacingLeft=4;spacingRight=4;overflow=hidden;points=[[0,0.5],[1,0.5]];portConstraint=eastwest;rotatable=0;whiteSpace=wrap;html=1;fontSize=25;" vertex="1" parent="tbTvtIE0d7QUZbWW2vMO-5">
          <mxGeometry y="150" width="1044" height="40" as="geometry" />
        </mxCell>
        <mxCell id="tbTvtIE0d7QUZbWW2vMO-10" value="&lt;span style=&quot;font-family: Arial;&quot; data-sheets-root=&quot;1&quot;&gt;2.5. Etiquetado del quirófano 2.&lt;/span&gt;" style="text;strokeColor=none;fillColor=none;align=left;verticalAlign=middle;spacingLeft=4;spacingRight=4;overflow=hidden;points=[[0,0.5],[1,0.5]];portConstraint=eastwest;rotatable=0;whiteSpace=wrap;html=1;fontSize=25;" vertex="1" parent="tbTvtIE0d7QUZbWW2vMO-5">
          <mxGeometry y="190" width="1044" height="40" as="geometry" />
        </mxCell>
        <mxCell id="tbTvtIE0d7QUZbWW2vMO-11" value="3. Desarrollo del modelo." style="swimlane;fontStyle=0;childLayout=stackLayout;horizontal=1;startSize=30;horizontalStack=0;resizeParent=1;resizeParentMax=0;resizeLast=0;collapsible=1;marginBottom=0;whiteSpace=wrap;html=1;fontSize=25;align=left;fillColor=#f8cecc;strokeColor=#b85450;" vertex="1" parent="jgB2li3oXypGAib3cJOK-1">
          <mxGeometry x="349" y="1470" width="1044" height="190" as="geometry" />
        </mxCell>
        <mxCell id="tbTvtIE0d7QUZbWW2vMO-12" value="&lt;span data-sheets-root=&quot;1&quot;&gt;&lt;font face=&quot;Helvetica&quot;&gt;3.1. Realización de pruebas y selección del modelo base.&lt;/font&gt;&lt;/span&gt;" style="text;strokeColor=none;fillColor=none;align=left;verticalAlign=middle;spacingLeft=4;spacingRight=4;overflow=hidden;points=[[0,0.5],[1,0.5]];portConstraint=eastwest;rotatable=0;whiteSpace=wrap;html=1;fontSize=25;" vertex="1" parent="tbTvtIE0d7QUZbWW2vMO-11">
          <mxGeometry y="30" width="1044" height="40" as="geometry" />
        </mxCell>
        <mxCell id="tbTvtIE0d7QUZbWW2vMO-13" value="&lt;span data-sheets-root=&quot;1&quot; style=&quot;font-family: Arial; font-style: normal;&quot;&gt;3.2. Configuración y prueba de la herramienta MLflow para seguimiento de experimentos.&lt;/span&gt;" style="text;strokeColor=none;fillColor=none;align=left;verticalAlign=middle;spacingLeft=4;spacingRight=4;overflow=hidden;points=[[0,0.5],[1,0.5]];portConstraint=eastwest;rotatable=0;whiteSpace=wrap;html=1;fontSize=25;" vertex="1" parent="tbTvtIE0d7QUZbWW2vMO-11">
          <mxGeometry y="70" width="1044" height="40" as="geometry" />
        </mxCell>
        <mxCell id="tbTvtIE0d7QUZbWW2vMO-14" value="&lt;span data-sheets-root=&quot;1&quot; style=&quot;font-family: Arial; font-style: normal;&quot;&gt;3.3. Evaluación del modelo y ajuste de umbrales.&lt;/span&gt;" style="text;strokeColor=none;fillColor=none;align=left;verticalAlign=middle;spacingLeft=4;spacingRight=4;overflow=hidden;points=[[0,0.5],[1,0.5]];portConstraint=eastwest;rotatable=0;whiteSpace=wrap;html=1;fontSize=25;" vertex="1" parent="tbTvtIE0d7QUZbWW2vMO-11">
          <mxGeometry y="110" width="1044" height="40" as="geometry" />
        </mxCell>
        <mxCell id="tbTvtIE0d7QUZbWW2vMO-15" value="&lt;span style=&quot;font-family: Arial;&quot; data-sheets-root=&quot;1&quot;&gt;3.4. Evaluación final y métricas por estado.&lt;/span&gt;" style="text;strokeColor=none;fillColor=none;align=left;verticalAlign=middle;spacingLeft=4;spacingRight=4;overflow=hidden;points=[[0,0.5],[1,0.5]];portConstraint=eastwest;rotatable=0;whiteSpace=wrap;html=1;fontSize=25;" vertex="1" parent="tbTvtIE0d7QUZbWW2vMO-11">
          <mxGeometry y="150" width="1044" height="40" as="geometry" />
        </mxCell>
        <mxCell id="tbTvtIE0d7QUZbWW2vMO-16" value="4. Inferencia e integración." style="swimlane;fontStyle=0;childLayout=stackLayout;horizontal=1;startSize=30;horizontalStack=0;resizeParent=1;resizeParentMax=0;resizeLast=0;collapsible=1;marginBottom=0;whiteSpace=wrap;html=1;fontSize=25;align=left;fillColor=#e1d5e7;strokeColor=#9673a6;" vertex="1" parent="jgB2li3oXypGAib3cJOK-1">
          <mxGeometry x="349" y="1660" width="1044" height="190" as="geometry" />
        </mxCell>
        <mxCell id="tbTvtIE0d7QUZbWW2vMO-17" value="&lt;span style=&quot;font-family: Arial;&quot; data-sheets-root=&quot;1&quot;&gt;4.1. Desarrollo de la aplicación prototipo.&lt;/span&gt;" style="text;strokeColor=none;fillColor=none;align=left;verticalAlign=middle;spacingLeft=4;spacingRight=4;overflow=hidden;points=[[0,0.5],[1,0.5]];portConstraint=eastwest;rotatable=0;whiteSpace=wrap;html=1;fontSize=25;" vertex="1" parent="tbTvtIE0d7QUZbWW2vMO-16">
          <mxGeometry y="30" width="1044" height="40" as="geometry" />
        </mxCell>
        <mxCell id="tbTvtIE0d7QUZbWW2vMO-18" value="&lt;span data-sheets-root=&quot;1&quot; style=&quot;font-family: Arial; font-style: normal;&quot;&gt;4.2. Diseño del esquema de base de datos (SQLite/PostgreSQL).&lt;/span&gt;" style="text;strokeColor=none;fillColor=none;align=left;verticalAlign=middle;spacingLeft=4;spacingRight=4;overflow=hidden;points=[[0,0.5],[1,0.5]];portConstraint=eastwest;rotatable=0;whiteSpace=wrap;html=1;fontSize=25;" vertex="1" parent="tbTvtIE0d7QUZbWW2vMO-16">
          <mxGeometry y="70" width="1044" height="40" as="geometry" />
        </mxCell>
        <mxCell id="tbTvtIE0d7QUZbWW2vMO-19" value="&lt;span data-sheets-root=&quot;1&quot; style=&quot;font-family: Arial; font-style: normal;&quot;&gt;4.3. Empaquetamiento del modelo y sus APIs en un contenedor Docker.&lt;/span&gt;" style="text;strokeColor=none;fillColor=none;align=left;verticalAlign=middle;spacingLeft=4;spacingRight=4;overflow=hidden;points=[[0,0.5],[1,0.5]];portConstraint=eastwest;rotatable=0;whiteSpace=wrap;html=1;fontSize=25;" vertex="1" parent="tbTvtIE0d7QUZbWW2vMO-16">
          <mxGeometry y="110" width="1044" height="40" as="geometry" />
        </mxCell>
        <mxCell id="tbTvtIE0d7QUZbWW2vMO-20" value="&lt;span style=&quot;font-family: Arial;&quot; data-sheets-root=&quot;1&quot;&gt;4.4. Realización de pruebas end-to-end.&lt;/span&gt;" style="text;strokeColor=none;fillColor=none;align=left;verticalAlign=middle;spacingLeft=4;spacingRight=4;overflow=hidden;points=[[0,0.5],[1,0.5]];portConstraint=eastwest;rotatable=0;whiteSpace=wrap;html=1;fontSize=25;" vertex="1" parent="tbTvtIE0d7QUZbWW2vMO-16">
          <mxGeometry y="150" width="1044" height="40" as="geometry" />
        </mxCell>
        <mxCell id="tbTvtIE0d7QUZbWW2vMO-21" value="6. Presentación del trabajo." style="swimlane;fontStyle=0;childLayout=stackLayout;horizontal=1;startSize=30;horizontalStack=0;resizeParent=1;resizeParentMax=0;resizeLast=0;collapsible=1;marginBottom=0;whiteSpace=wrap;html=1;fontSize=25;align=left;fillColor=#ffe6cc;strokeColor=#d79b00;" vertex="1" parent="jgB2li3oXypGAib3cJOK-1">
          <mxGeometry x="349" y="2160" width="1044" height="70" as="geometry" />
        </mxCell>
        <mxCell id="tbTvtIE0d7QUZbWW2vMO-22" value="&lt;span style=&quot;font-family: Arial;&quot; data-sheets-root=&quot;1&quot;&gt;6.1. Preparación de la presentación final y defensa pública del trabajo.&lt;/span&gt;" style="text;strokeColor=none;fillColor=none;align=left;verticalAlign=middle;spacingLeft=4;spacingRight=4;overflow=hidden;points=[[0,0.5],[1,0.5]];portConstraint=eastwest;rotatable=0;whiteSpace=wrap;html=1;fontSize=25;" vertex="1" parent="tbTvtIE0d7QUZbWW2vMO-21">
          <mxGeometry y="30" width="1044" height="40" as="geometry" />
        </mxCell>
        <mxCell id="tbTvtIE0d7QUZbWW2vMO-23" value="5. Elaboración de documentos." style="swimlane;fontStyle=0;childLayout=stackLayout;horizontal=1;startSize=30;horizontalStack=0;resizeParent=1;resizeParentMax=0;resizeLast=0;collapsible=1;marginBottom=0;whiteSpace=wrap;html=1;fontSize=25;align=left;fillColor=#d5e8d4;strokeColor=#82b366;" vertex="1" parent="jgB2li3oXypGAib3cJOK-1">
          <mxGeometry x="349" y="1850" width="1044" height="310" as="geometry" />
        </mxCell>
        <mxCell id="tbTvtIE0d7QUZbWW2vMO-24" value="&lt;span style=&quot;font-family: Arial;&quot; data-sheets-root=&quot;1&quot;&gt;5.1. Elaboración del informe de avance del proyecto.&lt;/span&gt;" style="text;strokeColor=none;fillColor=none;align=left;verticalAlign=middle;spacingLeft=4;spacingRight=4;overflow=hidden;points=[[0,0.5],[1,0.5]];portConstraint=eastwest;rotatable=0;whiteSpace=wrap;html=1;fontSize=25;" vertex="1" parent="tbTvtIE0d7QUZbWW2vMO-23">
          <mxGeometry y="30" width="1044" height="40" as="geometry" />
        </mxCell>
        <mxCell id="tbTvtIE0d7QUZbWW2vMO-25" value="&lt;span data-sheets-root=&quot;1&quot; style=&quot;font-family: Arial; font-style: normal;&quot;&gt;5.2. Elaboración del video de demostración de la solución.&lt;/span&gt;" style="text;strokeColor=none;fillColor=none;align=left;verticalAlign=middle;spacingLeft=4;spacingRight=4;overflow=hidden;points=[[0,0.5],[1,0.5]];portConstraint=eastwest;rotatable=0;whiteSpace=wrap;html=1;fontSize=25;" vertex="1" parent="tbTvtIE0d7QUZbWW2vMO-23">
          <mxGeometry y="70" width="1044" height="40" as="geometry" />
        </mxCell>
        <mxCell id="tbTvtIE0d7QUZbWW2vMO-26" value="&lt;span data-sheets-root=&quot;1&quot; style=&quot;font-family: Arial; font-style: normal;&quot;&gt;5.3. Confección de la memoria del trabajo final (TTF A).&lt;/span&gt;" style="text;strokeColor=none;fillColor=none;align=left;verticalAlign=middle;spacingLeft=4;spacingRight=4;overflow=hidden;points=[[0,0.5],[1,0.5]];portConstraint=eastwest;rotatable=0;whiteSpace=wrap;html=1;fontSize=25;" vertex="1" parent="tbTvtIE0d7QUZbWW2vMO-23">
          <mxGeometry y="110" width="1044" height="40" as="geometry" />
        </mxCell>
        <mxCell id="tbTvtIE0d7QUZbWW2vMO-27" value="&lt;span style=&quot;font-family: Arial;&quot; data-sheets-root=&quot;1&quot;&gt;5.4. Confección de la memoria del trabajo final (TTF B).&lt;/span&gt;" style="text;strokeColor=none;fillColor=none;align=left;verticalAlign=middle;spacingLeft=4;spacingRight=4;overflow=hidden;points=[[0,0.5],[1,0.5]];portConstraint=eastwest;rotatable=0;whiteSpace=wrap;html=1;fontSize=25;" vertex="1" parent="tbTvtIE0d7QUZbWW2vMO-23">
          <mxGeometry y="150" width="1044" height="40" as="geometry" />
        </mxCell>
        <mxCell id="tbTvtIE0d7QUZbWW2vMO-28" value="&lt;span style=&quot;font-family: Arial;&quot; data-sheets-root=&quot;1&quot;&gt;5.5. Aplicación de correcciones y ajustes en la memoria.&lt;/span&gt;" style="text;strokeColor=none;fillColor=none;align=left;verticalAlign=middle;spacingLeft=4;spacingRight=4;overflow=hidden;points=[[0,0.5],[1,0.5]];portConstraint=eastwest;rotatable=0;whiteSpace=wrap;html=1;fontSize=25;" vertex="1" parent="tbTvtIE0d7QUZbWW2vMO-23">
          <mxGeometry y="190" width="1044" height="40" as="geometry" />
        </mxCell>
        <mxCell id="tbTvtIE0d7QUZbWW2vMO-29" value="&lt;span style=&quot;font-family: Arial;&quot; data-sheets-root=&quot;1&quot;&gt;5.6. Documentación de código, herramientas y experimentos.&lt;/span&gt;" style="text;strokeColor=none;fillColor=none;align=left;verticalAlign=middle;spacingLeft=4;spacingRight=4;overflow=hidden;points=[[0,0.5],[1,0.5]];portConstraint=eastwest;rotatable=0;whiteSpace=wrap;html=1;fontSize=25;" vertex="1" parent="tbTvtIE0d7QUZbWW2vMO-23">
          <mxGeometry y="230" width="1044" height="40" as="geometry" />
        </mxCell>
        <mxCell id="tbTvtIE0d7QUZbWW2vMO-30" value="&lt;span style=&quot;font-family: Arial;&quot; data-sheets-root=&quot;1&quot;&gt;5.7. Creación del documento de recomendaciones para el cliente.&lt;/span&gt;" style="text;strokeColor=none;fillColor=none;align=left;verticalAlign=middle;spacingLeft=4;spacingRight=4;overflow=hidden;points=[[0,0.5],[1,0.5]];portConstraint=eastwest;rotatable=0;whiteSpace=wrap;html=1;fontSize=25;" vertex="1" parent="tbTvtIE0d7QUZbWW2vMO-23">
          <mxGeometry y="270" width="1044" height="40" as="geometry" />
        </mxCell>
      </root>
    </mxGraphModel>
  </diagram>
  <diagram id="msg-A-6V1k1vP_tLh_mC" name="AoN table">
    <mxGraphModel dx="2066" dy="2222" grid="1" gridSize="10" guides="1" tooltips="1" connect="1" arrows="1" fold="1" page="1" pageScale="1" pageWidth="827" pageHeight="1169" math="0" shadow="0">
      <root>
        <mxCell id="0" />
        <mxCell id="1" parent="0" />
        <mxCell id="1ZlyACFDUv2U2H3uCdid-1" value="1. Configuración inicial y planificación." style="swimlane;fontStyle=0;childLayout=stackLayout;horizontal=1;startSize=30;horizontalStack=0;resizeParent=1;resizeParentMax=0;resizeLast=0;collapsible=1;marginBottom=0;whiteSpace=wrap;html=1;fontSize=20;fillColor=#dae8fc;strokeColor=#6c8ebf;align=left;" vertex="1" parent="1">
          <mxGeometry x="28" y="-940" width="771" height="150" as="geometry">
            <mxRectangle x="29" y="-940" width="380" height="40" as="alternateBounds" />
          </mxGeometry>
        </mxCell>
        <mxCell id="1ZlyACFDUv2U2H3uCdid-2" value="1.1 Definición del problema, requerimientos y categorías de eventos." style="text;strokeColor=none;fillColor=none;align=left;verticalAlign=middle;spacingLeft=4;spacingRight=4;overflow=hidden;points=[[0,0.5],[1,0.5]];portConstraint=eastwest;rotatable=0;whiteSpace=wrap;html=1;fontSize=20;" vertex="1" parent="1ZlyACFDUv2U2H3uCdid-1">
          <mxGeometry y="30" width="771" height="30" as="geometry" />
        </mxCell>
        <mxCell id="1ZlyACFDUv2U2H3uCdid-3" value="1.2. Creación del repositorio en GitHub, y de los entornos UV y MLflow.1." style="text;strokeColor=none;fillColor=none;align=left;verticalAlign=middle;spacingLeft=4;spacingRight=4;overflow=hidden;points=[[0,0.5],[1,0.5]];portConstraint=eastwest;rotatable=0;whiteSpace=wrap;html=1;fontSize=20;" vertex="1" parent="1ZlyACFDUv2U2H3uCdid-1">
          <mxGeometry y="60" width="771" height="30" as="geometry" />
        </mxCell>
        <mxCell id="1ZlyACFDUv2U2H3uCdid-4" value="1.3. Configuración de control de versiones con DVC/Git LFS." style="text;strokeColor=none;fillColor=none;align=left;verticalAlign=middle;spacingLeft=4;spacingRight=4;overflow=hidden;points=[[0,0.5],[1,0.5]];portConstraint=eastwest;rotatable=0;whiteSpace=wrap;html=1;fontSize=20;" vertex="1" parent="1ZlyACFDUv2U2H3uCdid-1">
          <mxGeometry y="90" width="771" height="30" as="geometry" />
        </mxCell>
        <mxCell id="1ZlyACFDUv2U2H3uCdid-14" value="1.4. Selección y prueba inicial de una herramienta de etiquetado (CVAT/LabelStudio)." style="text;strokeColor=none;fillColor=none;align=left;verticalAlign=middle;spacingLeft=4;spacingRight=4;overflow=hidden;points=[[0,0.5],[1,0.5]];portConstraint=eastwest;rotatable=0;whiteSpace=wrap;html=1;fontSize=20;" vertex="1" parent="1ZlyACFDUv2U2H3uCdid-1">
          <mxGeometry y="120" width="771" height="30" as="geometry" />
        </mxCell>
        <mxCell id="1ZlyACFDUv2U2H3uCdid-6" value="2. Preparación de datos y etiquetado." style="swimlane;fontStyle=0;childLayout=stackLayout;horizontal=1;startSize=30;horizontalStack=0;resizeParent=1;resizeParentMax=0;resizeLast=0;collapsible=1;marginBottom=0;whiteSpace=wrap;html=1;fontSize=20;align=left;fillColor=#fff2cc;strokeColor=#d6b656;" vertex="1" parent="1">
          <mxGeometry x="28" y="-790" width="771" height="180" as="geometry" />
        </mxCell>
        <mxCell id="1ZlyACFDUv2U2H3uCdid-7" value="&lt;span style=&quot;font-family: Arial;&quot; data-sheets-root=&quot;1&quot;&gt;2.1. Análisis de videos, definición de eventos, preparación del dataset.&lt;/span&gt;" style="text;strokeColor=none;fillColor=none;align=left;verticalAlign=middle;spacingLeft=4;spacingRight=4;overflow=hidden;points=[[0,0.5],[1,0.5]];portConstraint=eastwest;rotatable=0;whiteSpace=wrap;html=1;fontSize=20;" vertex="1" parent="1ZlyACFDUv2U2H3uCdid-6">
          <mxGeometry y="30" width="771" height="30" as="geometry" />
        </mxCell>
        <mxCell id="1ZlyACFDUv2U2H3uCdid-8" value="&lt;span data-sheets-root=&quot;1&quot; style=&quot;font-family: Arial; font-style: normal;&quot;&gt;2.2. Definición del esquema de anotación (etiquetado).&lt;/span&gt;" style="text;strokeColor=none;fillColor=none;align=left;verticalAlign=middle;spacingLeft=4;spacingRight=4;overflow=hidden;points=[[0,0.5],[1,0.5]];portConstraint=eastwest;rotatable=0;whiteSpace=wrap;html=1;fontSize=20;" vertex="1" parent="1ZlyACFDUv2U2H3uCdid-6">
          <mxGeometry y="60" width="771" height="30" as="geometry" />
        </mxCell>
        <mxCell id="1ZlyACFDUv2U2H3uCdid-9" value="&lt;span data-sheets-root=&quot;1&quot; style=&quot;font-family: Arial; font-style: normal;&quot;&gt;2.3. Extracción de frames y sincronización de timestamps.&lt;/span&gt;" style="text;strokeColor=none;fillColor=none;align=left;verticalAlign=middle;spacingLeft=4;spacingRight=4;overflow=hidden;points=[[0,0.5],[1,0.5]];portConstraint=eastwest;rotatable=0;whiteSpace=wrap;html=1;fontSize=20;" vertex="1" parent="1ZlyACFDUv2U2H3uCdid-6">
          <mxGeometry y="90" width="771" height="30" as="geometry" />
        </mxCell>
        <mxCell id="1ZlyACFDUv2U2H3uCdid-15" value="&lt;span style=&quot;font-family: Arial;&quot; data-sheets-root=&quot;1&quot;&gt;2.4. Etiquetado del quirófano 1.&lt;/span&gt;" style="text;strokeColor=none;fillColor=none;align=left;verticalAlign=middle;spacingLeft=4;spacingRight=4;overflow=hidden;points=[[0,0.5],[1,0.5]];portConstraint=eastwest;rotatable=0;whiteSpace=wrap;html=1;fontSize=20;" vertex="1" parent="1ZlyACFDUv2U2H3uCdid-6">
          <mxGeometry y="120" width="771" height="30" as="geometry" />
        </mxCell>
        <mxCell id="1ZlyACFDUv2U2H3uCdid-16" value="&lt;span style=&quot;font-family: Arial;&quot; data-sheets-root=&quot;1&quot;&gt;2.5. Etiquetado del quirófano 2.&lt;/span&gt;" style="text;strokeColor=none;fillColor=none;align=left;verticalAlign=middle;spacingLeft=4;spacingRight=4;overflow=hidden;points=[[0,0.5],[1,0.5]];portConstraint=eastwest;rotatable=0;whiteSpace=wrap;html=1;fontSize=20;" vertex="1" parent="1ZlyACFDUv2U2H3uCdid-6">
          <mxGeometry y="150" width="771" height="30" as="geometry" />
        </mxCell>
        <mxCell id="rBRPtKkEDq9YRHWqm0il-1" value="3. Desarrollo del modelo." style="swimlane;fontStyle=0;childLayout=stackLayout;horizontal=1;startSize=30;horizontalStack=0;resizeParent=1;resizeParentMax=0;resizeLast=0;collapsible=1;marginBottom=0;whiteSpace=wrap;html=1;fontSize=20;align=left;fillColor=#f8cecc;strokeColor=#b85450;" vertex="1" parent="1">
          <mxGeometry x="28" y="-610" width="771" height="150" as="geometry" />
        </mxCell>
        <mxCell id="rBRPtKkEDq9YRHWqm0il-2" value="&lt;span style=&quot;&quot; data-sheets-root=&quot;1&quot;&gt;&lt;font face=&quot;Helvetica&quot;&gt;3.1. Realización de pruebas y selección del modelo base.&lt;/font&gt;&lt;/span&gt;" style="text;strokeColor=none;fillColor=none;align=left;verticalAlign=middle;spacingLeft=4;spacingRight=4;overflow=hidden;points=[[0,0.5],[1,0.5]];portConstraint=eastwest;rotatable=0;whiteSpace=wrap;html=1;fontSize=20;" vertex="1" parent="rBRPtKkEDq9YRHWqm0il-1">
          <mxGeometry y="30" width="771" height="30" as="geometry" />
        </mxCell>
        <mxCell id="rBRPtKkEDq9YRHWqm0il-3" value="&lt;span data-sheets-root=&quot;1&quot; style=&quot;font-family: Arial; font-style: normal;&quot;&gt;3.2. Configuración y prueba de la herramienta MLflow para seguimiento de experimentos.&lt;/span&gt;" style="text;strokeColor=none;fillColor=none;align=left;verticalAlign=middle;spacingLeft=4;spacingRight=4;overflow=hidden;points=[[0,0.5],[1,0.5]];portConstraint=eastwest;rotatable=0;whiteSpace=wrap;html=1;fontSize=20;" vertex="1" parent="rBRPtKkEDq9YRHWqm0il-1">
          <mxGeometry y="60" width="771" height="30" as="geometry" />
        </mxCell>
        <mxCell id="rBRPtKkEDq9YRHWqm0il-4" value="&lt;span data-sheets-root=&quot;1&quot; style=&quot;font-family: Arial; font-style: normal;&quot;&gt;3.3. Evaluación del modelo y ajuste de umbrales.&lt;/span&gt;" style="text;strokeColor=none;fillColor=none;align=left;verticalAlign=middle;spacingLeft=4;spacingRight=4;overflow=hidden;points=[[0,0.5],[1,0.5]];portConstraint=eastwest;rotatable=0;whiteSpace=wrap;html=1;fontSize=20;" vertex="1" parent="rBRPtKkEDq9YRHWqm0il-1">
          <mxGeometry y="90" width="771" height="30" as="geometry" />
        </mxCell>
        <mxCell id="rBRPtKkEDq9YRHWqm0il-6" value="&lt;span style=&quot;font-family: Arial;&quot; data-sheets-root=&quot;1&quot;&gt;3.4. Evaluación final y métricas por estado.&lt;/span&gt;" style="text;strokeColor=none;fillColor=none;align=left;verticalAlign=middle;spacingLeft=4;spacingRight=4;overflow=hidden;points=[[0,0.5],[1,0.5]];portConstraint=eastwest;rotatable=0;whiteSpace=wrap;html=1;fontSize=20;" vertex="1" parent="rBRPtKkEDq9YRHWqm0il-1">
          <mxGeometry y="120" width="771" height="30" as="geometry" />
        </mxCell>
        <mxCell id="rBRPtKkEDq9YRHWqm0il-7" value="4. Inferencia e integración." style="swimlane;fontStyle=0;childLayout=stackLayout;horizontal=1;startSize=30;horizontalStack=0;resizeParent=1;resizeParentMax=0;resizeLast=0;collapsible=1;marginBottom=0;whiteSpace=wrap;html=1;fontSize=20;align=left;fillColor=#e1d5e7;strokeColor=#9673a6;" vertex="1" parent="1">
          <mxGeometry x="28" y="-460" width="771" height="150" as="geometry" />
        </mxCell>
        <mxCell id="rBRPtKkEDq9YRHWqm0il-8" value="&lt;span style=&quot;font-family: Arial;&quot; data-sheets-root=&quot;1&quot;&gt;4.1. Desarrollo de la aplicación prototipo.&lt;/span&gt;" style="text;strokeColor=none;fillColor=none;align=left;verticalAlign=middle;spacingLeft=4;spacingRight=4;overflow=hidden;points=[[0,0.5],[1,0.5]];portConstraint=eastwest;rotatable=0;whiteSpace=wrap;html=1;fontSize=20;" vertex="1" parent="rBRPtKkEDq9YRHWqm0il-7">
          <mxGeometry y="30" width="771" height="30" as="geometry" />
        </mxCell>
        <mxCell id="rBRPtKkEDq9YRHWqm0il-9" value="&lt;span data-sheets-root=&quot;1&quot; style=&quot;font-family: Arial; font-style: normal;&quot;&gt;4.2. Diseño del esquema de base de datos (SQLite/PostgreSQL).&lt;/span&gt;" style="text;strokeColor=none;fillColor=none;align=left;verticalAlign=middle;spacingLeft=4;spacingRight=4;overflow=hidden;points=[[0,0.5],[1,0.5]];portConstraint=eastwest;rotatable=0;whiteSpace=wrap;html=1;fontSize=20;" vertex="1" parent="rBRPtKkEDq9YRHWqm0il-7">
          <mxGeometry y="60" width="771" height="30" as="geometry" />
        </mxCell>
        <mxCell id="rBRPtKkEDq9YRHWqm0il-10" value="&lt;span data-sheets-root=&quot;1&quot; style=&quot;font-family: Arial; font-style: normal;&quot;&gt;4.3. Empaquetamiento del modelo y sus APIs en un contenedor Docker.&lt;/span&gt;" style="text;strokeColor=none;fillColor=none;align=left;verticalAlign=middle;spacingLeft=4;spacingRight=4;overflow=hidden;points=[[0,0.5],[1,0.5]];portConstraint=eastwest;rotatable=0;whiteSpace=wrap;html=1;fontSize=20;" vertex="1" parent="rBRPtKkEDq9YRHWqm0il-7">
          <mxGeometry y="90" width="771" height="30" as="geometry" />
        </mxCell>
        <mxCell id="rBRPtKkEDq9YRHWqm0il-11" value="&lt;span style=&quot;font-family: Arial;&quot; data-sheets-root=&quot;1&quot;&gt;4.4. Realización de pruebas end-to-end.&lt;/span&gt;" style="text;strokeColor=none;fillColor=none;align=left;verticalAlign=middle;spacingLeft=4;spacingRight=4;overflow=hidden;points=[[0,0.5],[1,0.5]];portConstraint=eastwest;rotatable=0;whiteSpace=wrap;html=1;fontSize=20;" vertex="1" parent="rBRPtKkEDq9YRHWqm0il-7">
          <mxGeometry y="120" width="771" height="30" as="geometry" />
        </mxCell>
        <mxCell id="rBRPtKkEDq9YRHWqm0il-15" value="6. Presentación del trabajo." style="swimlane;fontStyle=0;childLayout=stackLayout;horizontal=1;startSize=30;horizontalStack=0;resizeParent=1;resizeParentMax=0;resizeLast=0;collapsible=1;marginBottom=0;whiteSpace=wrap;html=1;fontSize=20;align=left;fillColor=#ffe6cc;strokeColor=#d79b00;" vertex="1" parent="1">
          <mxGeometry x="28" y="-70" width="771" height="60" as="geometry" />
        </mxCell>
        <mxCell id="rBRPtKkEDq9YRHWqm0il-16" value="&lt;span style=&quot;font-family: Arial;&quot; data-sheets-root=&quot;1&quot;&gt;6.1. Preparación de la presentación final y defensa pública del trabajo.&lt;/span&gt;" style="text;strokeColor=none;fillColor=none;align=left;verticalAlign=middle;spacingLeft=4;spacingRight=4;overflow=hidden;points=[[0,0.5],[1,0.5]];portConstraint=eastwest;rotatable=0;whiteSpace=wrap;html=1;fontSize=20;" vertex="1" parent="rBRPtKkEDq9YRHWqm0il-15">
          <mxGeometry y="30" width="771" height="30" as="geometry" />
        </mxCell>
        <mxCell id="88wTOjSZ-kpxXCtH49db-1" value="5. Elaboración de documentos." style="swimlane;fontStyle=0;childLayout=stackLayout;horizontal=1;startSize=30;horizontalStack=0;resizeParent=1;resizeParentMax=0;resizeLast=0;collapsible=1;marginBottom=0;whiteSpace=wrap;html=1;fontSize=20;align=left;fillColor=#d5e8d4;strokeColor=#82b366;" vertex="1" parent="1">
          <mxGeometry x="28" y="-310" width="771" height="240" as="geometry" />
        </mxCell>
        <mxCell id="88wTOjSZ-kpxXCtH49db-2" value="&lt;span style=&quot;font-family: Arial;&quot; data-sheets-root=&quot;1&quot;&gt;5.1. Elaboración del informe de avance del proyecto.&lt;/span&gt;" style="text;strokeColor=none;fillColor=none;align=left;verticalAlign=middle;spacingLeft=4;spacingRight=4;overflow=hidden;points=[[0,0.5],[1,0.5]];portConstraint=eastwest;rotatable=0;whiteSpace=wrap;html=1;fontSize=20;" vertex="1" parent="88wTOjSZ-kpxXCtH49db-1">
          <mxGeometry y="30" width="771" height="30" as="geometry" />
        </mxCell>
        <mxCell id="88wTOjSZ-kpxXCtH49db-3" value="&lt;span data-sheets-root=&quot;1&quot; style=&quot;font-family: Arial; font-style: normal;&quot;&gt;5.2. Elaboración del video de demostración de la solución.&lt;/span&gt;" style="text;strokeColor=none;fillColor=none;align=left;verticalAlign=middle;spacingLeft=4;spacingRight=4;overflow=hidden;points=[[0,0.5],[1,0.5]];portConstraint=eastwest;rotatable=0;whiteSpace=wrap;html=1;fontSize=20;" vertex="1" parent="88wTOjSZ-kpxXCtH49db-1">
          <mxGeometry y="60" width="771" height="30" as="geometry" />
        </mxCell>
        <mxCell id="88wTOjSZ-kpxXCtH49db-4" value="&lt;span data-sheets-root=&quot;1&quot; style=&quot;font-family: Arial; font-style: normal;&quot;&gt;5.3. Confección de la memoria del trabajo final (TTF A).&lt;/span&gt;" style="text;strokeColor=none;fillColor=none;align=left;verticalAlign=middle;spacingLeft=4;spacingRight=4;overflow=hidden;points=[[0,0.5],[1,0.5]];portConstraint=eastwest;rotatable=0;whiteSpace=wrap;html=1;fontSize=20;" vertex="1" parent="88wTOjSZ-kpxXCtH49db-1">
          <mxGeometry y="90" width="771" height="30" as="geometry" />
        </mxCell>
        <mxCell id="88wTOjSZ-kpxXCtH49db-5" value="&lt;span style=&quot;font-family: Arial;&quot; data-sheets-root=&quot;1&quot;&gt;5.4. Confección de la memoria del trabajo final (TTF B).&lt;/span&gt;" style="text;strokeColor=none;fillColor=none;align=left;verticalAlign=middle;spacingLeft=4;spacingRight=4;overflow=hidden;points=[[0,0.5],[1,0.5]];portConstraint=eastwest;rotatable=0;whiteSpace=wrap;html=1;fontSize=20;" vertex="1" parent="88wTOjSZ-kpxXCtH49db-1">
          <mxGeometry y="120" width="771" height="30" as="geometry" />
        </mxCell>
        <mxCell id="V1HOrbLE7SEakhpV-VPs-1" value="&lt;span style=&quot;font-family: Arial;&quot; data-sheets-root=&quot;1&quot;&gt;5.5. Aplicación de correcciones y ajustes en la memoria.&lt;/span&gt;" style="text;strokeColor=none;fillColor=none;align=left;verticalAlign=middle;spacingLeft=4;spacingRight=4;overflow=hidden;points=[[0,0.5],[1,0.5]];portConstraint=eastwest;rotatable=0;whiteSpace=wrap;html=1;fontSize=20;" vertex="1" parent="88wTOjSZ-kpxXCtH49db-1">
          <mxGeometry y="150" width="771" height="30" as="geometry" />
        </mxCell>
        <mxCell id="V1HOrbLE7SEakhpV-VPs-2" value="&lt;span style=&quot;font-family: Arial;&quot; data-sheets-root=&quot;1&quot;&gt;5.6. Documentación de código, herramientas y experimentos.&lt;/span&gt;" style="text;strokeColor=none;fillColor=none;align=left;verticalAlign=middle;spacingLeft=4;spacingRight=4;overflow=hidden;points=[[0,0.5],[1,0.5]];portConstraint=eastwest;rotatable=0;whiteSpace=wrap;html=1;fontSize=20;" vertex="1" parent="88wTOjSZ-kpxXCtH49db-1">
          <mxGeometry y="180" width="771" height="30" as="geometry" />
        </mxCell>
        <mxCell id="V1HOrbLE7SEakhpV-VPs-3" value="&lt;span style=&quot;font-family: Arial;&quot; data-sheets-root=&quot;1&quot;&gt;5.7. Creación del documento de recomendaciones para el cliente.&lt;/span&gt;" style="text;strokeColor=none;fillColor=none;align=left;verticalAlign=middle;spacingLeft=4;spacingRight=4;overflow=hidden;points=[[0,0.5],[1,0.5]];portConstraint=eastwest;rotatable=0;whiteSpace=wrap;html=1;fontSize=20;" vertex="1" parent="88wTOjSZ-kpxXCtH49db-1">
          <mxGeometry y="210" width="771" height="30" as="geometry" />
        </mxCell>
      </root>
    </mxGraphModel>
  </diagram>
</mxfile>
